%TF.GenerationSoftware,KiCad,Pcbnew,(7.0.0)*%
%TF.CreationDate,2024-06-02T18:05:42+02:00*%
%TF.ProjectId,rc-fabgl,72632d66-6162-4676-9c2e-6b696361645f,rev?*%
%TF.SameCoordinates,PX9157080PY9071968*%
%TF.FileFunction,Drillmap*%
%TF.FilePolarity,Positive*%
%FSLAX45Y45*%
G04 Gerber Fmt 4.5, Leading zero omitted, Abs format (unit mm)*
G04 Created by KiCad (PCBNEW (7.0.0)) date 2024-06-02 18:05:42*
%MOMM*%
%LPD*%
G01*
G04 APERTURE LIST*
%ADD10C,0.150000*%
%ADD11C,0.200000*%
%ADD12C,0.320000*%
G04 APERTURE END LIST*
D10*
X1501140Y4986020D02*
X0Y3484880D01*
X9391980Y4986020D02*
X1501140Y4986020D01*
X9910140Y4468020D02*
X9910140Y0D01*
X9909980Y4468020D02*
G75*
G03*
X9391980Y4986020I-518000J0D01*
G01*
X0Y3484880D02*
X0Y0D01*
X0Y0D02*
X9910140Y0D01*
D11*
D12*
X348000Y3495020D02*
X668000Y3175020D01*
X668000Y3495020D02*
X348000Y3175020D01*
D11*
X240119Y-300976D02*
X240119Y-100976D01*
X240119Y-100976D02*
X287738Y-100976D01*
X287738Y-100976D02*
X316310Y-110500D01*
X316310Y-110500D02*
X335357Y-129548D01*
X335357Y-129548D02*
X344881Y-148595D01*
X344881Y-148595D02*
X354405Y-186690D01*
X354405Y-186690D02*
X354405Y-215262D01*
X354405Y-215262D02*
X344881Y-253357D01*
X344881Y-253357D02*
X335357Y-272405D01*
X335357Y-272405D02*
X316310Y-291452D01*
X316310Y-291452D02*
X287738Y-300976D01*
X287738Y-300976D02*
X240119Y-300976D01*
X440119Y-300976D02*
X440119Y-167643D01*
X440119Y-205738D02*
X449643Y-186690D01*
X449643Y-186690D02*
X459167Y-177167D01*
X459167Y-177167D02*
X478214Y-167643D01*
X478214Y-167643D02*
X497262Y-167643D01*
X563929Y-300976D02*
X563929Y-167643D01*
X563929Y-100976D02*
X554405Y-110500D01*
X554405Y-110500D02*
X563929Y-120024D01*
X563929Y-120024D02*
X573452Y-110500D01*
X573452Y-110500D02*
X563929Y-100976D01*
X563929Y-100976D02*
X563929Y-120024D01*
X687738Y-300976D02*
X668690Y-291452D01*
X668690Y-291452D02*
X659167Y-272405D01*
X659167Y-272405D02*
X659167Y-100976D01*
X792500Y-300976D02*
X773452Y-291452D01*
X773452Y-291452D02*
X763928Y-272405D01*
X763928Y-272405D02*
X763928Y-100976D01*
X988690Y-300976D02*
X988690Y-100976D01*
X988690Y-100976D02*
X1055357Y-243833D01*
X1055357Y-243833D02*
X1122024Y-100976D01*
X1122024Y-100976D02*
X1122024Y-300976D01*
X1302976Y-300976D02*
X1302976Y-196214D01*
X1302976Y-196214D02*
X1293452Y-177167D01*
X1293452Y-177167D02*
X1274405Y-167643D01*
X1274405Y-167643D02*
X1236309Y-167643D01*
X1236309Y-167643D02*
X1217262Y-177167D01*
X1302976Y-291452D02*
X1283929Y-300976D01*
X1283929Y-300976D02*
X1236309Y-300976D01*
X1236309Y-300976D02*
X1217262Y-291452D01*
X1217262Y-291452D02*
X1207738Y-272405D01*
X1207738Y-272405D02*
X1207738Y-253357D01*
X1207738Y-253357D02*
X1217262Y-234309D01*
X1217262Y-234309D02*
X1236309Y-224786D01*
X1236309Y-224786D02*
X1283929Y-224786D01*
X1283929Y-224786D02*
X1302976Y-215262D01*
X1398214Y-167643D02*
X1398214Y-367643D01*
X1398214Y-177167D02*
X1417262Y-167643D01*
X1417262Y-167643D02*
X1455357Y-167643D01*
X1455357Y-167643D02*
X1474405Y-177167D01*
X1474405Y-177167D02*
X1483928Y-186690D01*
X1483928Y-186690D02*
X1493452Y-205738D01*
X1493452Y-205738D02*
X1493452Y-262881D01*
X1493452Y-262881D02*
X1483928Y-281929D01*
X1483928Y-281929D02*
X1474405Y-291452D01*
X1474405Y-291452D02*
X1455357Y-300976D01*
X1455357Y-300976D02*
X1417262Y-300976D01*
X1417262Y-300976D02*
X1398214Y-291452D01*
X1579167Y-281929D02*
X1588690Y-291452D01*
X1588690Y-291452D02*
X1579167Y-300976D01*
X1579167Y-300976D02*
X1569643Y-291452D01*
X1569643Y-291452D02*
X1579167Y-281929D01*
X1579167Y-281929D02*
X1579167Y-300976D01*
X1579167Y-177167D02*
X1588690Y-186690D01*
X1588690Y-186690D02*
X1579167Y-196214D01*
X1579167Y-196214D02*
X1569643Y-186690D01*
X1569643Y-186690D02*
X1579167Y-177167D01*
X1579167Y-177167D02*
X1579167Y-196214D01*
X-207500Y-547500D02*
X-7500Y-747500D01*
X-7500Y-547500D02*
X-207500Y-747500D01*
X221071Y-520976D02*
X344881Y-520976D01*
X344881Y-520976D02*
X278214Y-597167D01*
X278214Y-597167D02*
X306786Y-597167D01*
X306786Y-597167D02*
X325833Y-606690D01*
X325833Y-606690D02*
X335357Y-616214D01*
X335357Y-616214D02*
X344881Y-635262D01*
X344881Y-635262D02*
X344881Y-682881D01*
X344881Y-682881D02*
X335357Y-701928D01*
X335357Y-701928D02*
X325833Y-711452D01*
X325833Y-711452D02*
X306786Y-720976D01*
X306786Y-720976D02*
X249643Y-720976D01*
X249643Y-720976D02*
X230595Y-711452D01*
X230595Y-711452D02*
X221071Y-701928D01*
X430595Y-701928D02*
X440119Y-711452D01*
X440119Y-711452D02*
X430595Y-720976D01*
X430595Y-720976D02*
X421071Y-711452D01*
X421071Y-711452D02*
X430595Y-701928D01*
X430595Y-701928D02*
X430595Y-720976D01*
X516309Y-540024D02*
X525833Y-530500D01*
X525833Y-530500D02*
X544881Y-520976D01*
X544881Y-520976D02*
X592500Y-520976D01*
X592500Y-520976D02*
X611548Y-530500D01*
X611548Y-530500D02*
X621071Y-540024D01*
X621071Y-540024D02*
X630595Y-559071D01*
X630595Y-559071D02*
X630595Y-578119D01*
X630595Y-578119D02*
X621071Y-606690D01*
X621071Y-606690D02*
X506786Y-720976D01*
X506786Y-720976D02*
X630595Y-720976D01*
X754405Y-520976D02*
X773452Y-520976D01*
X773452Y-520976D02*
X792500Y-530500D01*
X792500Y-530500D02*
X802024Y-540024D01*
X802024Y-540024D02*
X811548Y-559071D01*
X811548Y-559071D02*
X821071Y-597167D01*
X821071Y-597167D02*
X821071Y-644786D01*
X821071Y-644786D02*
X811548Y-682881D01*
X811548Y-682881D02*
X802024Y-701928D01*
X802024Y-701928D02*
X792500Y-711452D01*
X792500Y-711452D02*
X773452Y-720976D01*
X773452Y-720976D02*
X754405Y-720976D01*
X754405Y-720976D02*
X735357Y-711452D01*
X735357Y-711452D02*
X725833Y-701928D01*
X725833Y-701928D02*
X716309Y-682881D01*
X716309Y-682881D02*
X706786Y-644786D01*
X706786Y-644786D02*
X706786Y-597167D01*
X706786Y-597167D02*
X716309Y-559071D01*
X716309Y-559071D02*
X725833Y-540024D01*
X725833Y-540024D02*
X735357Y-530500D01*
X735357Y-530500D02*
X754405Y-520976D01*
X944881Y-520976D02*
X963929Y-520976D01*
X963929Y-520976D02*
X982976Y-530500D01*
X982976Y-530500D02*
X992500Y-540024D01*
X992500Y-540024D02*
X1002024Y-559071D01*
X1002024Y-559071D02*
X1011548Y-597167D01*
X1011548Y-597167D02*
X1011548Y-644786D01*
X1011548Y-644786D02*
X1002024Y-682881D01*
X1002024Y-682881D02*
X992500Y-701928D01*
X992500Y-701928D02*
X982976Y-711452D01*
X982976Y-711452D02*
X963929Y-720976D01*
X963929Y-720976D02*
X944881Y-720976D01*
X944881Y-720976D02*
X925833Y-711452D01*
X925833Y-711452D02*
X916309Y-701928D01*
X916309Y-701928D02*
X906786Y-682881D01*
X906786Y-682881D02*
X897262Y-644786D01*
X897262Y-644786D02*
X897262Y-597167D01*
X897262Y-597167D02*
X906786Y-559071D01*
X906786Y-559071D02*
X916309Y-540024D01*
X916309Y-540024D02*
X925833Y-530500D01*
X925833Y-530500D02*
X944881Y-520976D01*
X1097262Y-720976D02*
X1097262Y-587643D01*
X1097262Y-606690D02*
X1106786Y-597167D01*
X1106786Y-597167D02*
X1125833Y-587643D01*
X1125833Y-587643D02*
X1154405Y-587643D01*
X1154405Y-587643D02*
X1173452Y-597167D01*
X1173452Y-597167D02*
X1182976Y-616214D01*
X1182976Y-616214D02*
X1182976Y-720976D01*
X1182976Y-616214D02*
X1192500Y-597167D01*
X1192500Y-597167D02*
X1211548Y-587643D01*
X1211548Y-587643D02*
X1240119Y-587643D01*
X1240119Y-587643D02*
X1259167Y-597167D01*
X1259167Y-597167D02*
X1268691Y-616214D01*
X1268691Y-616214D02*
X1268691Y-720976D01*
X1363929Y-720976D02*
X1363929Y-587643D01*
X1363929Y-606690D02*
X1373452Y-597167D01*
X1373452Y-597167D02*
X1392500Y-587643D01*
X1392500Y-587643D02*
X1421071Y-587643D01*
X1421071Y-587643D02*
X1440119Y-597167D01*
X1440119Y-597167D02*
X1449643Y-616214D01*
X1449643Y-616214D02*
X1449643Y-720976D01*
X1449643Y-616214D02*
X1459167Y-597167D01*
X1459167Y-597167D02*
X1478214Y-587643D01*
X1478214Y-587643D02*
X1506786Y-587643D01*
X1506786Y-587643D02*
X1525833Y-597167D01*
X1525833Y-597167D02*
X1535357Y-616214D01*
X1535357Y-616214D02*
X1535357Y-720976D01*
X1893452Y-511452D02*
X1722024Y-768595D01*
X2118214Y-520976D02*
X2137262Y-520976D01*
X2137262Y-520976D02*
X2156310Y-530500D01*
X2156310Y-530500D02*
X2165833Y-540024D01*
X2165833Y-540024D02*
X2175357Y-559071D01*
X2175357Y-559071D02*
X2184881Y-597167D01*
X2184881Y-597167D02*
X2184881Y-644786D01*
X2184881Y-644786D02*
X2175357Y-682881D01*
X2175357Y-682881D02*
X2165833Y-701928D01*
X2165833Y-701928D02*
X2156310Y-711452D01*
X2156310Y-711452D02*
X2137262Y-720976D01*
X2137262Y-720976D02*
X2118214Y-720976D01*
X2118214Y-720976D02*
X2099167Y-711452D01*
X2099167Y-711452D02*
X2089643Y-701928D01*
X2089643Y-701928D02*
X2080119Y-682881D01*
X2080119Y-682881D02*
X2070595Y-644786D01*
X2070595Y-644786D02*
X2070595Y-597167D01*
X2070595Y-597167D02*
X2080119Y-559071D01*
X2080119Y-559071D02*
X2089643Y-540024D01*
X2089643Y-540024D02*
X2099167Y-530500D01*
X2099167Y-530500D02*
X2118214Y-520976D01*
X2270595Y-701928D02*
X2280119Y-711452D01*
X2280119Y-711452D02*
X2270595Y-720976D01*
X2270595Y-720976D02*
X2261072Y-711452D01*
X2261072Y-711452D02*
X2270595Y-701928D01*
X2270595Y-701928D02*
X2270595Y-720976D01*
X2470595Y-720976D02*
X2356310Y-720976D01*
X2413452Y-720976D02*
X2413452Y-520976D01*
X2413452Y-520976D02*
X2394405Y-549548D01*
X2394405Y-549548D02*
X2375357Y-568595D01*
X2375357Y-568595D02*
X2356310Y-578119D01*
X2546786Y-540024D02*
X2556310Y-530500D01*
X2556310Y-530500D02*
X2575357Y-520976D01*
X2575357Y-520976D02*
X2622976Y-520976D01*
X2622976Y-520976D02*
X2642024Y-530500D01*
X2642024Y-530500D02*
X2651548Y-540024D01*
X2651548Y-540024D02*
X2661072Y-559071D01*
X2661072Y-559071D02*
X2661072Y-578119D01*
X2661072Y-578119D02*
X2651548Y-606690D01*
X2651548Y-606690D02*
X2537262Y-720976D01*
X2537262Y-720976D02*
X2661072Y-720976D01*
X2832500Y-520976D02*
X2794405Y-520976D01*
X2794405Y-520976D02*
X2775357Y-530500D01*
X2775357Y-530500D02*
X2765833Y-540024D01*
X2765833Y-540024D02*
X2746786Y-568595D01*
X2746786Y-568595D02*
X2737262Y-606690D01*
X2737262Y-606690D02*
X2737262Y-682881D01*
X2737262Y-682881D02*
X2746786Y-701928D01*
X2746786Y-701928D02*
X2756310Y-711452D01*
X2756310Y-711452D02*
X2775357Y-720976D01*
X2775357Y-720976D02*
X2813452Y-720976D01*
X2813452Y-720976D02*
X2832500Y-711452D01*
X2832500Y-711452D02*
X2842024Y-701928D01*
X2842024Y-701928D02*
X2851548Y-682881D01*
X2851548Y-682881D02*
X2851548Y-635262D01*
X2851548Y-635262D02*
X2842024Y-616214D01*
X2842024Y-616214D02*
X2832500Y-606690D01*
X2832500Y-606690D02*
X2813452Y-597167D01*
X2813452Y-597167D02*
X2775357Y-597167D01*
X2775357Y-597167D02*
X2756310Y-606690D01*
X2756310Y-606690D02*
X2746786Y-616214D01*
X2746786Y-616214D02*
X2737262Y-635262D01*
X2975357Y-520976D02*
X2994405Y-520976D01*
X2994405Y-520976D02*
X3013452Y-530500D01*
X3013452Y-530500D02*
X3022976Y-540024D01*
X3022976Y-540024D02*
X3032500Y-559071D01*
X3032500Y-559071D02*
X3042024Y-597167D01*
X3042024Y-597167D02*
X3042024Y-644786D01*
X3042024Y-644786D02*
X3032500Y-682881D01*
X3032500Y-682881D02*
X3022976Y-701928D01*
X3022976Y-701928D02*
X3013452Y-711452D01*
X3013452Y-711452D02*
X2994405Y-720976D01*
X2994405Y-720976D02*
X2975357Y-720976D01*
X2975357Y-720976D02*
X2956310Y-711452D01*
X2956310Y-711452D02*
X2946786Y-701928D01*
X2946786Y-701928D02*
X2937262Y-682881D01*
X2937262Y-682881D02*
X2927738Y-644786D01*
X2927738Y-644786D02*
X2927738Y-597167D01*
X2927738Y-597167D02*
X2937262Y-559071D01*
X2937262Y-559071D02*
X2946786Y-540024D01*
X2946786Y-540024D02*
X2956310Y-530500D01*
X2956310Y-530500D02*
X2975357Y-520976D01*
X3118214Y-520976D02*
X3118214Y-559071D01*
X3194405Y-520976D02*
X3194405Y-559071D01*
X3457262Y-797167D02*
X3447738Y-787643D01*
X3447738Y-787643D02*
X3428691Y-759071D01*
X3428691Y-759071D02*
X3419167Y-740024D01*
X3419167Y-740024D02*
X3409643Y-711452D01*
X3409643Y-711452D02*
X3400119Y-663833D01*
X3400119Y-663833D02*
X3400119Y-625738D01*
X3400119Y-625738D02*
X3409643Y-578119D01*
X3409643Y-578119D02*
X3419167Y-549548D01*
X3419167Y-549548D02*
X3428691Y-530500D01*
X3428691Y-530500D02*
X3447738Y-501928D01*
X3447738Y-501928D02*
X3457262Y-492405D01*
X3638214Y-720976D02*
X3523929Y-720976D01*
X3581071Y-720976D02*
X3581071Y-520976D01*
X3581071Y-520976D02*
X3562024Y-549548D01*
X3562024Y-549548D02*
X3542976Y-568595D01*
X3542976Y-568595D02*
X3523929Y-578119D01*
X3843929Y-720976D02*
X3843929Y-520976D01*
X3929643Y-720976D02*
X3929643Y-616214D01*
X3929643Y-616214D02*
X3920119Y-597167D01*
X3920119Y-597167D02*
X3901072Y-587643D01*
X3901072Y-587643D02*
X3872500Y-587643D01*
X3872500Y-587643D02*
X3853452Y-597167D01*
X3853452Y-597167D02*
X3843929Y-606690D01*
X4053452Y-720976D02*
X4034405Y-711452D01*
X4034405Y-711452D02*
X4024881Y-701928D01*
X4024881Y-701928D02*
X4015357Y-682881D01*
X4015357Y-682881D02*
X4015357Y-625738D01*
X4015357Y-625738D02*
X4024881Y-606690D01*
X4024881Y-606690D02*
X4034405Y-597167D01*
X4034405Y-597167D02*
X4053452Y-587643D01*
X4053452Y-587643D02*
X4082024Y-587643D01*
X4082024Y-587643D02*
X4101072Y-597167D01*
X4101072Y-597167D02*
X4110595Y-606690D01*
X4110595Y-606690D02*
X4120119Y-625738D01*
X4120119Y-625738D02*
X4120119Y-682881D01*
X4120119Y-682881D02*
X4110595Y-701928D01*
X4110595Y-701928D02*
X4101072Y-711452D01*
X4101072Y-711452D02*
X4082024Y-720976D01*
X4082024Y-720976D02*
X4053452Y-720976D01*
X4234405Y-720976D02*
X4215357Y-711452D01*
X4215357Y-711452D02*
X4205834Y-692405D01*
X4205834Y-692405D02*
X4205834Y-520976D01*
X4386786Y-711452D02*
X4367738Y-720976D01*
X4367738Y-720976D02*
X4329643Y-720976D01*
X4329643Y-720976D02*
X4310595Y-711452D01*
X4310595Y-711452D02*
X4301072Y-692405D01*
X4301072Y-692405D02*
X4301072Y-616214D01*
X4301072Y-616214D02*
X4310595Y-597167D01*
X4310595Y-597167D02*
X4329643Y-587643D01*
X4329643Y-587643D02*
X4367738Y-587643D01*
X4367738Y-587643D02*
X4386786Y-597167D01*
X4386786Y-597167D02*
X4396310Y-616214D01*
X4396310Y-616214D02*
X4396310Y-635262D01*
X4396310Y-635262D02*
X4301072Y-654310D01*
X4462976Y-797167D02*
X4472500Y-787643D01*
X4472500Y-787643D02*
X4491548Y-759071D01*
X4491548Y-759071D02*
X4501072Y-740024D01*
X4501072Y-740024D02*
X4510595Y-711452D01*
X4510595Y-711452D02*
X4520119Y-663833D01*
X4520119Y-663833D02*
X4520119Y-625738D01*
X4520119Y-625738D02*
X4510595Y-578119D01*
X4510595Y-578119D02*
X4501072Y-549548D01*
X4501072Y-549548D02*
X4491548Y-530500D01*
X4491548Y-530500D02*
X4472500Y-501928D01*
X4472500Y-501928D02*
X4462976Y-492405D01*
X4792500Y-797167D02*
X4782976Y-787643D01*
X4782976Y-787643D02*
X4763929Y-759071D01*
X4763929Y-759071D02*
X4754405Y-740024D01*
X4754405Y-740024D02*
X4744881Y-711452D01*
X4744881Y-711452D02*
X4735357Y-663833D01*
X4735357Y-663833D02*
X4735357Y-625738D01*
X4735357Y-625738D02*
X4744881Y-578119D01*
X4744881Y-578119D02*
X4754405Y-549548D01*
X4754405Y-549548D02*
X4763929Y-530500D01*
X4763929Y-530500D02*
X4782976Y-501928D01*
X4782976Y-501928D02*
X4792500Y-492405D01*
X4868691Y-587643D02*
X4868691Y-720976D01*
X4868691Y-606690D02*
X4878214Y-597167D01*
X4878214Y-597167D02*
X4897262Y-587643D01*
X4897262Y-587643D02*
X4925834Y-587643D01*
X4925834Y-587643D02*
X4944881Y-597167D01*
X4944881Y-597167D02*
X4954405Y-616214D01*
X4954405Y-616214D02*
X4954405Y-720976D01*
X5078214Y-720976D02*
X5059167Y-711452D01*
X5059167Y-711452D02*
X5049643Y-701928D01*
X5049643Y-701928D02*
X5040119Y-682881D01*
X5040119Y-682881D02*
X5040119Y-625738D01*
X5040119Y-625738D02*
X5049643Y-606690D01*
X5049643Y-606690D02*
X5059167Y-597167D01*
X5059167Y-597167D02*
X5078214Y-587643D01*
X5078214Y-587643D02*
X5106786Y-587643D01*
X5106786Y-587643D02*
X5125834Y-597167D01*
X5125834Y-597167D02*
X5135357Y-606690D01*
X5135357Y-606690D02*
X5144881Y-625738D01*
X5144881Y-625738D02*
X5144881Y-682881D01*
X5144881Y-682881D02*
X5135357Y-701928D01*
X5135357Y-701928D02*
X5125834Y-711452D01*
X5125834Y-711452D02*
X5106786Y-720976D01*
X5106786Y-720976D02*
X5078214Y-720976D01*
X5202024Y-587643D02*
X5278214Y-587643D01*
X5230595Y-520976D02*
X5230595Y-692405D01*
X5230595Y-692405D02*
X5240119Y-711452D01*
X5240119Y-711452D02*
X5259167Y-720976D01*
X5259167Y-720976D02*
X5278214Y-720976D01*
X5464881Y-587643D02*
X5464881Y-787643D01*
X5464881Y-597167D02*
X5483929Y-587643D01*
X5483929Y-587643D02*
X5522024Y-587643D01*
X5522024Y-587643D02*
X5541072Y-597167D01*
X5541072Y-597167D02*
X5550595Y-606690D01*
X5550595Y-606690D02*
X5560119Y-625738D01*
X5560119Y-625738D02*
X5560119Y-682881D01*
X5560119Y-682881D02*
X5550595Y-701928D01*
X5550595Y-701928D02*
X5541072Y-711452D01*
X5541072Y-711452D02*
X5522024Y-720976D01*
X5522024Y-720976D02*
X5483929Y-720976D01*
X5483929Y-720976D02*
X5464881Y-711452D01*
X5674405Y-720976D02*
X5655357Y-711452D01*
X5655357Y-711452D02*
X5645833Y-692405D01*
X5645833Y-692405D02*
X5645833Y-520976D01*
X5836310Y-720976D02*
X5836310Y-616214D01*
X5836310Y-616214D02*
X5826786Y-597167D01*
X5826786Y-597167D02*
X5807738Y-587643D01*
X5807738Y-587643D02*
X5769643Y-587643D01*
X5769643Y-587643D02*
X5750595Y-597167D01*
X5836310Y-711452D02*
X5817262Y-720976D01*
X5817262Y-720976D02*
X5769643Y-720976D01*
X5769643Y-720976D02*
X5750595Y-711452D01*
X5750595Y-711452D02*
X5741072Y-692405D01*
X5741072Y-692405D02*
X5741072Y-673357D01*
X5741072Y-673357D02*
X5750595Y-654310D01*
X5750595Y-654310D02*
X5769643Y-644786D01*
X5769643Y-644786D02*
X5817262Y-644786D01*
X5817262Y-644786D02*
X5836310Y-635262D01*
X5902976Y-587643D02*
X5979167Y-587643D01*
X5931548Y-520976D02*
X5931548Y-692405D01*
X5931548Y-692405D02*
X5941072Y-711452D01*
X5941072Y-711452D02*
X5960119Y-720976D01*
X5960119Y-720976D02*
X5979167Y-720976D01*
X6122024Y-711452D02*
X6102976Y-720976D01*
X6102976Y-720976D02*
X6064881Y-720976D01*
X6064881Y-720976D02*
X6045833Y-711452D01*
X6045833Y-711452D02*
X6036310Y-692405D01*
X6036310Y-692405D02*
X6036310Y-616214D01*
X6036310Y-616214D02*
X6045833Y-597167D01*
X6045833Y-597167D02*
X6064881Y-587643D01*
X6064881Y-587643D02*
X6102976Y-587643D01*
X6102976Y-587643D02*
X6122024Y-597167D01*
X6122024Y-597167D02*
X6131548Y-616214D01*
X6131548Y-616214D02*
X6131548Y-635262D01*
X6131548Y-635262D02*
X6036310Y-654310D01*
X6302976Y-720976D02*
X6302976Y-520976D01*
X6302976Y-711452D02*
X6283929Y-720976D01*
X6283929Y-720976D02*
X6245833Y-720976D01*
X6245833Y-720976D02*
X6226786Y-711452D01*
X6226786Y-711452D02*
X6217262Y-701928D01*
X6217262Y-701928D02*
X6207738Y-682881D01*
X6207738Y-682881D02*
X6207738Y-625738D01*
X6207738Y-625738D02*
X6217262Y-606690D01*
X6217262Y-606690D02*
X6226786Y-597167D01*
X6226786Y-597167D02*
X6245833Y-587643D01*
X6245833Y-587643D02*
X6283929Y-587643D01*
X6283929Y-587643D02*
X6302976Y-597167D01*
X6379167Y-797167D02*
X6388691Y-787643D01*
X6388691Y-787643D02*
X6407738Y-759071D01*
X6407738Y-759071D02*
X6417262Y-740024D01*
X6417262Y-740024D02*
X6426786Y-711452D01*
X6426786Y-711452D02*
X6436310Y-663833D01*
X6436310Y-663833D02*
X6436310Y-625738D01*
X6436310Y-625738D02*
X6426786Y-578119D01*
X6426786Y-578119D02*
X6417262Y-549548D01*
X6417262Y-549548D02*
X6407738Y-530500D01*
X6407738Y-530500D02*
X6388691Y-501928D01*
X6388691Y-501928D02*
X6379167Y-492405D01*
M02*
