%TF.GenerationSoftware,KiCad,Pcbnew,(7.0.0)*%
%TF.CreationDate,2024-06-02T18:05:14+02:00*%
%TF.ProjectId,rc-fabgl,72632d66-6162-4676-9c2e-6b696361645f,rev?*%
%TF.SameCoordinates,PX9157080PY9071968*%
%TF.FileFunction,Legend,Bot*%
%TF.FilePolarity,Positive*%
%FSLAX46Y46*%
G04 Gerber Fmt 4.6, Leading zero omitted, Abs format (unit mm)*
G04 Created by KiCad (PCBNEW (7.0.0)) date 2024-06-02 18:05:14*
%MOMM*%
%LPD*%
G01*
G04 APERTURE LIST*
%ADD10C,0.300000*%
G04 APERTURE END LIST*
D10*
X66389999Y40254129D02*
X66889999Y40968415D01*
X67247142Y40254129D02*
X67247142Y41754129D01*
X67247142Y41754129D02*
X66675713Y41754129D01*
X66675713Y41754129D02*
X66532856Y41682700D01*
X66532856Y41682700D02*
X66461427Y41611272D01*
X66461427Y41611272D02*
X66389999Y41468415D01*
X66389999Y41468415D02*
X66389999Y41254129D01*
X66389999Y41254129D02*
X66461427Y41111272D01*
X66461427Y41111272D02*
X66532856Y41039843D01*
X66532856Y41039843D02*
X66675713Y40968415D01*
X66675713Y40968415D02*
X67247142Y40968415D01*
X65175713Y40325558D02*
X65318570Y40254129D01*
X65318570Y40254129D02*
X65604285Y40254129D01*
X65604285Y40254129D02*
X65747142Y40325558D01*
X65747142Y40325558D02*
X65818570Y40468415D01*
X65818570Y40468415D02*
X65818570Y41039843D01*
X65818570Y41039843D02*
X65747142Y41182700D01*
X65747142Y41182700D02*
X65604285Y41254129D01*
X65604285Y41254129D02*
X65318570Y41254129D01*
X65318570Y41254129D02*
X65175713Y41182700D01*
X65175713Y41182700D02*
X65104285Y41039843D01*
X65104285Y41039843D02*
X65104285Y40896986D01*
X65104285Y40896986D02*
X65818570Y40754129D01*
X64461428Y40254129D02*
X64461428Y41254129D01*
X64461428Y41111272D02*
X64389999Y41182700D01*
X64389999Y41182700D02*
X64247142Y41254129D01*
X64247142Y41254129D02*
X64032856Y41254129D01*
X64032856Y41254129D02*
X63889999Y41182700D01*
X63889999Y41182700D02*
X63818571Y41039843D01*
X63818571Y41039843D02*
X63818571Y40254129D01*
X63818571Y41039843D02*
X63747142Y41182700D01*
X63747142Y41182700D02*
X63604285Y41254129D01*
X63604285Y41254129D02*
X63389999Y41254129D01*
X63389999Y41254129D02*
X63247142Y41182700D01*
X63247142Y41182700D02*
X63175713Y41039843D01*
X63175713Y41039843D02*
X63175713Y40254129D01*
X62247142Y40254129D02*
X62389999Y40325558D01*
X62389999Y40325558D02*
X62461428Y40396986D01*
X62461428Y40396986D02*
X62532856Y40539843D01*
X62532856Y40539843D02*
X62532856Y40968415D01*
X62532856Y40968415D02*
X62461428Y41111272D01*
X62461428Y41111272D02*
X62389999Y41182700D01*
X62389999Y41182700D02*
X62247142Y41254129D01*
X62247142Y41254129D02*
X62032856Y41254129D01*
X62032856Y41254129D02*
X61889999Y41182700D01*
X61889999Y41182700D02*
X61818571Y41111272D01*
X61818571Y41111272D02*
X61747142Y40968415D01*
X61747142Y40968415D02*
X61747142Y40539843D01*
X61747142Y40539843D02*
X61818571Y40396986D01*
X61818571Y40396986D02*
X61889999Y40325558D01*
X61889999Y40325558D02*
X62032856Y40254129D01*
X62032856Y40254129D02*
X62247142Y40254129D01*
X61247142Y41254129D02*
X60889999Y40254129D01*
X60889999Y40254129D02*
X60532856Y41254129D01*
X59389999Y40325558D02*
X59532856Y40254129D01*
X59532856Y40254129D02*
X59818571Y40254129D01*
X59818571Y40254129D02*
X59961428Y40325558D01*
X59961428Y40325558D02*
X60032856Y40468415D01*
X60032856Y40468415D02*
X60032856Y41039843D01*
X60032856Y41039843D02*
X59961428Y41182700D01*
X59961428Y41182700D02*
X59818571Y41254129D01*
X59818571Y41254129D02*
X59532856Y41254129D01*
X59532856Y41254129D02*
X59389999Y41182700D01*
X59389999Y41182700D02*
X59318571Y41039843D01*
X59318571Y41039843D02*
X59318571Y40896986D01*
X59318571Y40896986D02*
X60032856Y40754129D01*
X57775714Y40254129D02*
X57775714Y41754129D01*
X57775714Y41182700D02*
X57632857Y41254129D01*
X57632857Y41254129D02*
X57347142Y41254129D01*
X57347142Y41254129D02*
X57204285Y41182700D01*
X57204285Y41182700D02*
X57132857Y41111272D01*
X57132857Y41111272D02*
X57061428Y40968415D01*
X57061428Y40968415D02*
X57061428Y40539843D01*
X57061428Y40539843D02*
X57132857Y40396986D01*
X57132857Y40396986D02*
X57204285Y40325558D01*
X57204285Y40325558D02*
X57347142Y40254129D01*
X57347142Y40254129D02*
X57632857Y40254129D01*
X57632857Y40254129D02*
X57775714Y40325558D01*
X56204285Y40254129D02*
X56347142Y40325558D01*
X56347142Y40325558D02*
X56418571Y40396986D01*
X56418571Y40396986D02*
X56489999Y40539843D01*
X56489999Y40539843D02*
X56489999Y40968415D01*
X56489999Y40968415D02*
X56418571Y41111272D01*
X56418571Y41111272D02*
X56347142Y41182700D01*
X56347142Y41182700D02*
X56204285Y41254129D01*
X56204285Y41254129D02*
X55989999Y41254129D01*
X55989999Y41254129D02*
X55847142Y41182700D01*
X55847142Y41182700D02*
X55775714Y41111272D01*
X55775714Y41111272D02*
X55704285Y40968415D01*
X55704285Y40968415D02*
X55704285Y40539843D01*
X55704285Y40539843D02*
X55775714Y40396986D01*
X55775714Y40396986D02*
X55847142Y40325558D01*
X55847142Y40325558D02*
X55989999Y40254129D01*
X55989999Y40254129D02*
X56204285Y40254129D01*
X54418571Y40254129D02*
X54418571Y41039843D01*
X54418571Y41039843D02*
X54489999Y41182700D01*
X54489999Y41182700D02*
X54632856Y41254129D01*
X54632856Y41254129D02*
X54918571Y41254129D01*
X54918571Y41254129D02*
X55061428Y41182700D01*
X54418571Y40325558D02*
X54561428Y40254129D01*
X54561428Y40254129D02*
X54918571Y40254129D01*
X54918571Y40254129D02*
X55061428Y40325558D01*
X55061428Y40325558D02*
X55132856Y40468415D01*
X55132856Y40468415D02*
X55132856Y40611272D01*
X55132856Y40611272D02*
X55061428Y40754129D01*
X55061428Y40754129D02*
X54918571Y40825558D01*
X54918571Y40825558D02*
X54561428Y40825558D01*
X54561428Y40825558D02*
X54418571Y40896986D01*
X53704285Y40254129D02*
X53704285Y41254129D01*
X53704285Y40968415D02*
X53632856Y41111272D01*
X53632856Y41111272D02*
X53561428Y41182700D01*
X53561428Y41182700D02*
X53418570Y41254129D01*
X53418570Y41254129D02*
X53275713Y41254129D01*
X52132857Y40254129D02*
X52132857Y41754129D01*
X52132857Y40325558D02*
X52275714Y40254129D01*
X52275714Y40254129D02*
X52561428Y40254129D01*
X52561428Y40254129D02*
X52704285Y40325558D01*
X52704285Y40325558D02*
X52775714Y40396986D01*
X52775714Y40396986D02*
X52847142Y40539843D01*
X52847142Y40539843D02*
X52847142Y40968415D01*
X52847142Y40968415D02*
X52775714Y41111272D01*
X52775714Y41111272D02*
X52704285Y41182700D01*
X52704285Y41182700D02*
X52561428Y41254129D01*
X52561428Y41254129D02*
X52275714Y41254129D01*
X52275714Y41254129D02*
X52132857Y41182700D01*
X68911428Y38824129D02*
X68340000Y38824129D01*
X68697143Y37824129D02*
X68697143Y39109843D01*
X68697143Y39109843D02*
X68625714Y39252700D01*
X68625714Y39252700D02*
X68482857Y39324129D01*
X68482857Y39324129D02*
X68340000Y39324129D01*
X67840000Y37824129D02*
X67840000Y38824129D01*
X67840000Y38538415D02*
X67768571Y38681272D01*
X67768571Y38681272D02*
X67697143Y38752700D01*
X67697143Y38752700D02*
X67554285Y38824129D01*
X67554285Y38824129D02*
X67411428Y38824129D01*
X66697143Y37824129D02*
X66840000Y37895558D01*
X66840000Y37895558D02*
X66911429Y37966986D01*
X66911429Y37966986D02*
X66982857Y38109843D01*
X66982857Y38109843D02*
X66982857Y38538415D01*
X66982857Y38538415D02*
X66911429Y38681272D01*
X66911429Y38681272D02*
X66840000Y38752700D01*
X66840000Y38752700D02*
X66697143Y38824129D01*
X66697143Y38824129D02*
X66482857Y38824129D01*
X66482857Y38824129D02*
X66340000Y38752700D01*
X66340000Y38752700D02*
X66268572Y38681272D01*
X66268572Y38681272D02*
X66197143Y38538415D01*
X66197143Y38538415D02*
X66197143Y38109843D01*
X66197143Y38109843D02*
X66268572Y37966986D01*
X66268572Y37966986D02*
X66340000Y37895558D01*
X66340000Y37895558D02*
X66482857Y37824129D01*
X66482857Y37824129D02*
X66697143Y37824129D01*
X65554286Y37824129D02*
X65554286Y38824129D01*
X65554286Y38681272D02*
X65482857Y38752700D01*
X65482857Y38752700D02*
X65340000Y38824129D01*
X65340000Y38824129D02*
X65125714Y38824129D01*
X65125714Y38824129D02*
X64982857Y38752700D01*
X64982857Y38752700D02*
X64911429Y38609843D01*
X64911429Y38609843D02*
X64911429Y37824129D01*
X64911429Y38609843D02*
X64840000Y38752700D01*
X64840000Y38752700D02*
X64697143Y38824129D01*
X64697143Y38824129D02*
X64482857Y38824129D01*
X64482857Y38824129D02*
X64340000Y38752700D01*
X64340000Y38752700D02*
X64268571Y38609843D01*
X64268571Y38609843D02*
X64268571Y37824129D01*
X62725714Y37895558D02*
X62582857Y37824129D01*
X62582857Y37824129D02*
X62297143Y37824129D01*
X62297143Y37824129D02*
X62154286Y37895558D01*
X62154286Y37895558D02*
X62082857Y38038415D01*
X62082857Y38038415D02*
X62082857Y38109843D01*
X62082857Y38109843D02*
X62154286Y38252700D01*
X62154286Y38252700D02*
X62297143Y38324129D01*
X62297143Y38324129D02*
X62511429Y38324129D01*
X62511429Y38324129D02*
X62654286Y38395558D01*
X62654286Y38395558D02*
X62725714Y38538415D01*
X62725714Y38538415D02*
X62725714Y38609843D01*
X62725714Y38609843D02*
X62654286Y38752700D01*
X62654286Y38752700D02*
X62511429Y38824129D01*
X62511429Y38824129D02*
X62297143Y38824129D01*
X62297143Y38824129D02*
X62154286Y38752700D01*
X61582857Y38824129D02*
X61225714Y37824129D01*
X60868571Y38824129D02*
X61225714Y37824129D01*
X61225714Y37824129D02*
X61368571Y37466986D01*
X61368571Y37466986D02*
X61440000Y37395558D01*
X61440000Y37395558D02*
X61582857Y37324129D01*
X60368571Y37895558D02*
X60225714Y37824129D01*
X60225714Y37824129D02*
X59940000Y37824129D01*
X59940000Y37824129D02*
X59797143Y37895558D01*
X59797143Y37895558D02*
X59725714Y38038415D01*
X59725714Y38038415D02*
X59725714Y38109843D01*
X59725714Y38109843D02*
X59797143Y38252700D01*
X59797143Y38252700D02*
X59940000Y38324129D01*
X59940000Y38324129D02*
X60154286Y38324129D01*
X60154286Y38324129D02*
X60297143Y38395558D01*
X60297143Y38395558D02*
X60368571Y38538415D01*
X60368571Y38538415D02*
X60368571Y38609843D01*
X60368571Y38609843D02*
X60297143Y38752700D01*
X60297143Y38752700D02*
X60154286Y38824129D01*
X60154286Y38824129D02*
X59940000Y38824129D01*
X59940000Y38824129D02*
X59797143Y38752700D01*
X59297142Y38824129D02*
X58725714Y38824129D01*
X59082857Y39324129D02*
X59082857Y38038415D01*
X59082857Y38038415D02*
X59011428Y37895558D01*
X59011428Y37895558D02*
X58868571Y37824129D01*
X58868571Y37824129D02*
X58725714Y37824129D01*
X57654285Y37895558D02*
X57797142Y37824129D01*
X57797142Y37824129D02*
X58082857Y37824129D01*
X58082857Y37824129D02*
X58225714Y37895558D01*
X58225714Y37895558D02*
X58297142Y38038415D01*
X58297142Y38038415D02*
X58297142Y38609843D01*
X58297142Y38609843D02*
X58225714Y38752700D01*
X58225714Y38752700D02*
X58082857Y38824129D01*
X58082857Y38824129D02*
X57797142Y38824129D01*
X57797142Y38824129D02*
X57654285Y38752700D01*
X57654285Y38752700D02*
X57582857Y38609843D01*
X57582857Y38609843D02*
X57582857Y38466986D01*
X57582857Y38466986D02*
X58297142Y38324129D01*
X56940000Y37824129D02*
X56940000Y38824129D01*
X56940000Y38681272D02*
X56868571Y38752700D01*
X56868571Y38752700D02*
X56725714Y38824129D01*
X56725714Y38824129D02*
X56511428Y38824129D01*
X56511428Y38824129D02*
X56368571Y38752700D01*
X56368571Y38752700D02*
X56297143Y38609843D01*
X56297143Y38609843D02*
X56297143Y37824129D01*
X56297143Y38609843D02*
X56225714Y38752700D01*
X56225714Y38752700D02*
X56082857Y38824129D01*
X56082857Y38824129D02*
X55868571Y38824129D01*
X55868571Y38824129D02*
X55725714Y38752700D01*
X55725714Y38752700D02*
X55654285Y38609843D01*
X55654285Y38609843D02*
X55654285Y37824129D01*
X53397143Y37824129D02*
X53397143Y38609843D01*
X53397143Y38609843D02*
X53468571Y38752700D01*
X53468571Y38752700D02*
X53611428Y38824129D01*
X53611428Y38824129D02*
X53897143Y38824129D01*
X53897143Y38824129D02*
X54040000Y38752700D01*
X53397143Y37895558D02*
X53540000Y37824129D01*
X53540000Y37824129D02*
X53897143Y37824129D01*
X53897143Y37824129D02*
X54040000Y37895558D01*
X54040000Y37895558D02*
X54111428Y38038415D01*
X54111428Y38038415D02*
X54111428Y38181272D01*
X54111428Y38181272D02*
X54040000Y38324129D01*
X54040000Y38324129D02*
X53897143Y38395558D01*
X53897143Y38395558D02*
X53540000Y38395558D01*
X53540000Y38395558D02*
X53397143Y38466986D01*
X52682857Y38824129D02*
X52682857Y37824129D01*
X52682857Y38681272D02*
X52611428Y38752700D01*
X52611428Y38752700D02*
X52468571Y38824129D01*
X52468571Y38824129D02*
X52254285Y38824129D01*
X52254285Y38824129D02*
X52111428Y38752700D01*
X52111428Y38752700D02*
X52040000Y38609843D01*
X52040000Y38609843D02*
X52040000Y37824129D01*
X50682857Y37824129D02*
X50682857Y39324129D01*
X50682857Y37895558D02*
X50825714Y37824129D01*
X50825714Y37824129D02*
X51111428Y37824129D01*
X51111428Y37824129D02*
X51254285Y37895558D01*
X51254285Y37895558D02*
X51325714Y37966986D01*
X51325714Y37966986D02*
X51397142Y38109843D01*
X51397142Y38109843D02*
X51397142Y38538415D01*
X51397142Y38538415D02*
X51325714Y38681272D01*
X51325714Y38681272D02*
X51254285Y38752700D01*
X51254285Y38752700D02*
X51111428Y38824129D01*
X51111428Y38824129D02*
X50825714Y38824129D01*
X50825714Y38824129D02*
X50682857Y38752700D01*
X69339999Y35394129D02*
X69339999Y36394129D01*
X69339999Y36894129D02*
X69411427Y36822700D01*
X69411427Y36822700D02*
X69339999Y36751272D01*
X69339999Y36751272D02*
X69268570Y36822700D01*
X69268570Y36822700D02*
X69339999Y36894129D01*
X69339999Y36894129D02*
X69339999Y36751272D01*
X68625713Y36394129D02*
X68625713Y35394129D01*
X68625713Y36251272D02*
X68554284Y36322700D01*
X68554284Y36322700D02*
X68411427Y36394129D01*
X68411427Y36394129D02*
X68197141Y36394129D01*
X68197141Y36394129D02*
X68054284Y36322700D01*
X68054284Y36322700D02*
X67982856Y36179843D01*
X67982856Y36179843D02*
X67982856Y35394129D01*
X67339998Y35465558D02*
X67197141Y35394129D01*
X67197141Y35394129D02*
X66911427Y35394129D01*
X66911427Y35394129D02*
X66768570Y35465558D01*
X66768570Y35465558D02*
X66697141Y35608415D01*
X66697141Y35608415D02*
X66697141Y35679843D01*
X66697141Y35679843D02*
X66768570Y35822700D01*
X66768570Y35822700D02*
X66911427Y35894129D01*
X66911427Y35894129D02*
X67125713Y35894129D01*
X67125713Y35894129D02*
X67268570Y35965558D01*
X67268570Y35965558D02*
X67339998Y36108415D01*
X67339998Y36108415D02*
X67339998Y36179843D01*
X67339998Y36179843D02*
X67268570Y36322700D01*
X67268570Y36322700D02*
X67125713Y36394129D01*
X67125713Y36394129D02*
X66911427Y36394129D01*
X66911427Y36394129D02*
X66768570Y36322700D01*
X66268569Y36394129D02*
X65697141Y36394129D01*
X66054284Y36894129D02*
X66054284Y35608415D01*
X66054284Y35608415D02*
X65982855Y35465558D01*
X65982855Y35465558D02*
X65839998Y35394129D01*
X65839998Y35394129D02*
X65697141Y35394129D01*
X64554284Y35394129D02*
X64554284Y36179843D01*
X64554284Y36179843D02*
X64625712Y36322700D01*
X64625712Y36322700D02*
X64768569Y36394129D01*
X64768569Y36394129D02*
X65054284Y36394129D01*
X65054284Y36394129D02*
X65197141Y36322700D01*
X64554284Y35465558D02*
X64697141Y35394129D01*
X64697141Y35394129D02*
X65054284Y35394129D01*
X65054284Y35394129D02*
X65197141Y35465558D01*
X65197141Y35465558D02*
X65268569Y35608415D01*
X65268569Y35608415D02*
X65268569Y35751272D01*
X65268569Y35751272D02*
X65197141Y35894129D01*
X65197141Y35894129D02*
X65054284Y35965558D01*
X65054284Y35965558D02*
X64697141Y35965558D01*
X64697141Y35965558D02*
X64554284Y36036986D01*
X63625712Y35394129D02*
X63768569Y35465558D01*
X63768569Y35465558D02*
X63839998Y35608415D01*
X63839998Y35608415D02*
X63839998Y36894129D01*
X62839998Y35394129D02*
X62982855Y35465558D01*
X62982855Y35465558D02*
X63054284Y35608415D01*
X63054284Y35608415D02*
X63054284Y36894129D01*
X60939998Y36894129D02*
X60939998Y35822700D01*
X60939998Y35822700D02*
X61011427Y35608415D01*
X61011427Y35608415D02*
X61154284Y35465558D01*
X61154284Y35465558D02*
X61368570Y35394129D01*
X61368570Y35394129D02*
X61511427Y35394129D01*
X60225713Y35394129D02*
X60225713Y36894129D01*
X60225713Y36894129D02*
X59654284Y36894129D01*
X59654284Y36894129D02*
X59511427Y36822700D01*
X59511427Y36822700D02*
X59439998Y36751272D01*
X59439998Y36751272D02*
X59368570Y36608415D01*
X59368570Y36608415D02*
X59368570Y36394129D01*
X59368570Y36394129D02*
X59439998Y36251272D01*
X59439998Y36251272D02*
X59511427Y36179843D01*
X59511427Y36179843D02*
X59654284Y36108415D01*
X59654284Y36108415D02*
X60225713Y36108415D01*
X57939998Y35394129D02*
X58797141Y35394129D01*
X58368570Y35394129D02*
X58368570Y36894129D01*
X58368570Y36894129D02*
X58511427Y36679843D01*
X58511427Y36679843D02*
X58654284Y36536986D01*
X58654284Y36536986D02*
X58797141Y36465558D01*
X56397142Y35394129D02*
X56397142Y36894129D01*
X56397142Y36322700D02*
X56254285Y36394129D01*
X56254285Y36394129D02*
X55968570Y36394129D01*
X55968570Y36394129D02*
X55825713Y36322700D01*
X55825713Y36322700D02*
X55754285Y36251272D01*
X55754285Y36251272D02*
X55682856Y36108415D01*
X55682856Y36108415D02*
X55682856Y35679843D01*
X55682856Y35679843D02*
X55754285Y35536986D01*
X55754285Y35536986D02*
X55825713Y35465558D01*
X55825713Y35465558D02*
X55968570Y35394129D01*
X55968570Y35394129D02*
X56254285Y35394129D01*
X56254285Y35394129D02*
X56397142Y35465558D01*
X54468570Y35465558D02*
X54611427Y35394129D01*
X54611427Y35394129D02*
X54897142Y35394129D01*
X54897142Y35394129D02*
X55039999Y35465558D01*
X55039999Y35465558D02*
X55111427Y35608415D01*
X55111427Y35608415D02*
X55111427Y36179843D01*
X55111427Y36179843D02*
X55039999Y36322700D01*
X55039999Y36322700D02*
X54897142Y36394129D01*
X54897142Y36394129D02*
X54611427Y36394129D01*
X54611427Y36394129D02*
X54468570Y36322700D01*
X54468570Y36322700D02*
X54397142Y36179843D01*
X54397142Y36179843D02*
X54397142Y36036986D01*
X54397142Y36036986D02*
X55111427Y35894129D01*
X53968570Y36394129D02*
X53397142Y36394129D01*
X53754285Y35394129D02*
X53754285Y36679843D01*
X53754285Y36679843D02*
X53682856Y36822700D01*
X53682856Y36822700D02*
X53539999Y36894129D01*
X53539999Y36894129D02*
X53397142Y36894129D01*
X52682856Y35394129D02*
X52825713Y35465558D01*
X52825713Y35465558D02*
X52897142Y35536986D01*
X52897142Y35536986D02*
X52968570Y35679843D01*
X52968570Y35679843D02*
X52968570Y36108415D01*
X52968570Y36108415D02*
X52897142Y36251272D01*
X52897142Y36251272D02*
X52825713Y36322700D01*
X52825713Y36322700D02*
X52682856Y36394129D01*
X52682856Y36394129D02*
X52468570Y36394129D01*
X52468570Y36394129D02*
X52325713Y36322700D01*
X52325713Y36322700D02*
X52254285Y36251272D01*
X52254285Y36251272D02*
X52182856Y36108415D01*
X52182856Y36108415D02*
X52182856Y35679843D01*
X52182856Y35679843D02*
X52254285Y35536986D01*
X52254285Y35536986D02*
X52325713Y35465558D01*
X52325713Y35465558D02*
X52468570Y35394129D01*
X52468570Y35394129D02*
X52682856Y35394129D01*
X51539999Y35394129D02*
X51539999Y36394129D01*
X51539999Y36108415D02*
X51468570Y36251272D01*
X51468570Y36251272D02*
X51397142Y36322700D01*
X51397142Y36322700D02*
X51254284Y36394129D01*
X51254284Y36394129D02*
X51111427Y36394129D01*
X50039999Y35465558D02*
X50182856Y35394129D01*
X50182856Y35394129D02*
X50468571Y35394129D01*
X50468571Y35394129D02*
X50611428Y35465558D01*
X50611428Y35465558D02*
X50682856Y35608415D01*
X50682856Y35608415D02*
X50682856Y36179843D01*
X50682856Y36179843D02*
X50611428Y36322700D01*
X50611428Y36322700D02*
X50468571Y36394129D01*
X50468571Y36394129D02*
X50182856Y36394129D01*
X50182856Y36394129D02*
X50039999Y36322700D01*
X50039999Y36322700D02*
X49968571Y36179843D01*
X49968571Y36179843D02*
X49968571Y36036986D01*
X49968571Y36036986D02*
X50682856Y35894129D01*
X68532857Y32964129D02*
X68675714Y33035558D01*
X68675714Y33035558D02*
X68747143Y33178415D01*
X68747143Y33178415D02*
X68747143Y34464129D01*
X67747143Y32964129D02*
X67890000Y33035558D01*
X67890000Y33035558D02*
X67961429Y33106986D01*
X67961429Y33106986D02*
X68032857Y33249843D01*
X68032857Y33249843D02*
X68032857Y33678415D01*
X68032857Y33678415D02*
X67961429Y33821272D01*
X67961429Y33821272D02*
X67890000Y33892700D01*
X67890000Y33892700D02*
X67747143Y33964129D01*
X67747143Y33964129D02*
X67532857Y33964129D01*
X67532857Y33964129D02*
X67390000Y33892700D01*
X67390000Y33892700D02*
X67318572Y33821272D01*
X67318572Y33821272D02*
X67247143Y33678415D01*
X67247143Y33678415D02*
X67247143Y33249843D01*
X67247143Y33249843D02*
X67318572Y33106986D01*
X67318572Y33106986D02*
X67390000Y33035558D01*
X67390000Y33035558D02*
X67532857Y32964129D01*
X67532857Y32964129D02*
X67747143Y32964129D01*
X65961429Y32964129D02*
X65961429Y33749843D01*
X65961429Y33749843D02*
X66032857Y33892700D01*
X66032857Y33892700D02*
X66175714Y33964129D01*
X66175714Y33964129D02*
X66461429Y33964129D01*
X66461429Y33964129D02*
X66604286Y33892700D01*
X65961429Y33035558D02*
X66104286Y32964129D01*
X66104286Y32964129D02*
X66461429Y32964129D01*
X66461429Y32964129D02*
X66604286Y33035558D01*
X66604286Y33035558D02*
X66675714Y33178415D01*
X66675714Y33178415D02*
X66675714Y33321272D01*
X66675714Y33321272D02*
X66604286Y33464129D01*
X66604286Y33464129D02*
X66461429Y33535558D01*
X66461429Y33535558D02*
X66104286Y33535558D01*
X66104286Y33535558D02*
X65961429Y33606986D01*
X64604286Y32964129D02*
X64604286Y34464129D01*
X64604286Y33035558D02*
X64747143Y32964129D01*
X64747143Y32964129D02*
X65032857Y32964129D01*
X65032857Y32964129D02*
X65175714Y33035558D01*
X65175714Y33035558D02*
X65247143Y33106986D01*
X65247143Y33106986D02*
X65318571Y33249843D01*
X65318571Y33249843D02*
X65318571Y33678415D01*
X65318571Y33678415D02*
X65247143Y33821272D01*
X65247143Y33821272D02*
X65175714Y33892700D01*
X65175714Y33892700D02*
X65032857Y33964129D01*
X65032857Y33964129D02*
X64747143Y33964129D01*
X64747143Y33964129D02*
X64604286Y33892700D01*
X63890000Y32964129D02*
X63890000Y33964129D01*
X63890000Y34464129D02*
X63961428Y34392700D01*
X63961428Y34392700D02*
X63890000Y34321272D01*
X63890000Y34321272D02*
X63818571Y34392700D01*
X63818571Y34392700D02*
X63890000Y34464129D01*
X63890000Y34464129D02*
X63890000Y34321272D01*
X63175714Y33964129D02*
X63175714Y32964129D01*
X63175714Y33821272D02*
X63104285Y33892700D01*
X63104285Y33892700D02*
X62961428Y33964129D01*
X62961428Y33964129D02*
X62747142Y33964129D01*
X62747142Y33964129D02*
X62604285Y33892700D01*
X62604285Y33892700D02*
X62532857Y33749843D01*
X62532857Y33749843D02*
X62532857Y32964129D01*
X61175714Y33964129D02*
X61175714Y32749843D01*
X61175714Y32749843D02*
X61247142Y32606986D01*
X61247142Y32606986D02*
X61318571Y32535558D01*
X61318571Y32535558D02*
X61461428Y32464129D01*
X61461428Y32464129D02*
X61675714Y32464129D01*
X61675714Y32464129D02*
X61818571Y32535558D01*
X61175714Y33035558D02*
X61318571Y32964129D01*
X61318571Y32964129D02*
X61604285Y32964129D01*
X61604285Y32964129D02*
X61747142Y33035558D01*
X61747142Y33035558D02*
X61818571Y33106986D01*
X61818571Y33106986D02*
X61889999Y33249843D01*
X61889999Y33249843D02*
X61889999Y33678415D01*
X61889999Y33678415D02*
X61818571Y33821272D01*
X61818571Y33821272D02*
X61747142Y33892700D01*
X61747142Y33892700D02*
X61604285Y33964129D01*
X61604285Y33964129D02*
X61318571Y33964129D01*
X61318571Y33964129D02*
X61175714Y33892700D01*
X59775713Y33964129D02*
X59204285Y33964129D01*
X59561428Y32964129D02*
X59561428Y34249843D01*
X59561428Y34249843D02*
X59489999Y34392700D01*
X59489999Y34392700D02*
X59347142Y34464129D01*
X59347142Y34464129D02*
X59204285Y34464129D01*
X58704285Y32964129D02*
X58704285Y33964129D01*
X58704285Y34464129D02*
X58775713Y34392700D01*
X58775713Y34392700D02*
X58704285Y34321272D01*
X58704285Y34321272D02*
X58632856Y34392700D01*
X58632856Y34392700D02*
X58704285Y34464129D01*
X58704285Y34464129D02*
X58704285Y34321272D01*
X57989999Y32964129D02*
X57989999Y33964129D01*
X57989999Y33678415D02*
X57918570Y33821272D01*
X57918570Y33821272D02*
X57847142Y33892700D01*
X57847142Y33892700D02*
X57704284Y33964129D01*
X57704284Y33964129D02*
X57561427Y33964129D01*
X57061428Y32964129D02*
X57061428Y33964129D01*
X57061428Y33821272D02*
X56989999Y33892700D01*
X56989999Y33892700D02*
X56847142Y33964129D01*
X56847142Y33964129D02*
X56632856Y33964129D01*
X56632856Y33964129D02*
X56489999Y33892700D01*
X56489999Y33892700D02*
X56418571Y33749843D01*
X56418571Y33749843D02*
X56418571Y32964129D01*
X56418571Y33749843D02*
X56347142Y33892700D01*
X56347142Y33892700D02*
X56204285Y33964129D01*
X56204285Y33964129D02*
X55989999Y33964129D01*
X55989999Y33964129D02*
X55847142Y33892700D01*
X55847142Y33892700D02*
X55775713Y33749843D01*
X55775713Y33749843D02*
X55775713Y32964129D01*
X55204285Y33964129D02*
X54918571Y32964129D01*
X54918571Y32964129D02*
X54632856Y33678415D01*
X54632856Y33678415D02*
X54347142Y32964129D01*
X54347142Y32964129D02*
X54061428Y33964129D01*
X52847142Y32964129D02*
X52847142Y33749843D01*
X52847142Y33749843D02*
X52918570Y33892700D01*
X52918570Y33892700D02*
X53061427Y33964129D01*
X53061427Y33964129D02*
X53347142Y33964129D01*
X53347142Y33964129D02*
X53489999Y33892700D01*
X52847142Y33035558D02*
X52989999Y32964129D01*
X52989999Y32964129D02*
X53347142Y32964129D01*
X53347142Y32964129D02*
X53489999Y33035558D01*
X53489999Y33035558D02*
X53561427Y33178415D01*
X53561427Y33178415D02*
X53561427Y33321272D01*
X53561427Y33321272D02*
X53489999Y33464129D01*
X53489999Y33464129D02*
X53347142Y33535558D01*
X53347142Y33535558D02*
X52989999Y33535558D01*
X52989999Y33535558D02*
X52847142Y33606986D01*
X52132856Y32964129D02*
X52132856Y33964129D01*
X52132856Y33678415D02*
X52061427Y33821272D01*
X52061427Y33821272D02*
X51989999Y33892700D01*
X51989999Y33892700D02*
X51847141Y33964129D01*
X51847141Y33964129D02*
X51704284Y33964129D01*
X50632856Y33035558D02*
X50775713Y32964129D01*
X50775713Y32964129D02*
X51061428Y32964129D01*
X51061428Y32964129D02*
X51204285Y33035558D01*
X51204285Y33035558D02*
X51275713Y33178415D01*
X51275713Y33178415D02*
X51275713Y33749843D01*
X51275713Y33749843D02*
X51204285Y33892700D01*
X51204285Y33892700D02*
X51061428Y33964129D01*
X51061428Y33964129D02*
X50775713Y33964129D01*
X50775713Y33964129D02*
X50632856Y33892700D01*
X50632856Y33892700D02*
X50561428Y33749843D01*
X50561428Y33749843D02*
X50561428Y33606986D01*
X50561428Y33606986D02*
X51275713Y33464129D01*
X64612142Y28244129D02*
X65112142Y28958415D01*
X65469285Y28244129D02*
X65469285Y29744129D01*
X65469285Y29744129D02*
X64897856Y29744129D01*
X64897856Y29744129D02*
X64754999Y29672700D01*
X64754999Y29672700D02*
X64683570Y29601272D01*
X64683570Y29601272D02*
X64612142Y29458415D01*
X64612142Y29458415D02*
X64612142Y29244129D01*
X64612142Y29244129D02*
X64683570Y29101272D01*
X64683570Y29101272D02*
X64754999Y29029843D01*
X64754999Y29029843D02*
X64897856Y28958415D01*
X64897856Y28958415D02*
X65469285Y28958415D01*
X63397856Y28315558D02*
X63540713Y28244129D01*
X63540713Y28244129D02*
X63826428Y28244129D01*
X63826428Y28244129D02*
X63969285Y28315558D01*
X63969285Y28315558D02*
X64040713Y28458415D01*
X64040713Y28458415D02*
X64040713Y29029843D01*
X64040713Y29029843D02*
X63969285Y29172700D01*
X63969285Y29172700D02*
X63826428Y29244129D01*
X63826428Y29244129D02*
X63540713Y29244129D01*
X63540713Y29244129D02*
X63397856Y29172700D01*
X63397856Y29172700D02*
X63326428Y29029843D01*
X63326428Y29029843D02*
X63326428Y28886986D01*
X63326428Y28886986D02*
X64040713Y28744129D01*
X62683571Y28244129D02*
X62683571Y29244129D01*
X62683571Y29101272D02*
X62612142Y29172700D01*
X62612142Y29172700D02*
X62469285Y29244129D01*
X62469285Y29244129D02*
X62254999Y29244129D01*
X62254999Y29244129D02*
X62112142Y29172700D01*
X62112142Y29172700D02*
X62040714Y29029843D01*
X62040714Y29029843D02*
X62040714Y28244129D01*
X62040714Y29029843D02*
X61969285Y29172700D01*
X61969285Y29172700D02*
X61826428Y29244129D01*
X61826428Y29244129D02*
X61612142Y29244129D01*
X61612142Y29244129D02*
X61469285Y29172700D01*
X61469285Y29172700D02*
X61397856Y29029843D01*
X61397856Y29029843D02*
X61397856Y28244129D01*
X60469285Y28244129D02*
X60612142Y28315558D01*
X60612142Y28315558D02*
X60683571Y28386986D01*
X60683571Y28386986D02*
X60754999Y28529843D01*
X60754999Y28529843D02*
X60754999Y28958415D01*
X60754999Y28958415D02*
X60683571Y29101272D01*
X60683571Y29101272D02*
X60612142Y29172700D01*
X60612142Y29172700D02*
X60469285Y29244129D01*
X60469285Y29244129D02*
X60254999Y29244129D01*
X60254999Y29244129D02*
X60112142Y29172700D01*
X60112142Y29172700D02*
X60040714Y29101272D01*
X60040714Y29101272D02*
X59969285Y28958415D01*
X59969285Y28958415D02*
X59969285Y28529843D01*
X59969285Y28529843D02*
X60040714Y28386986D01*
X60040714Y28386986D02*
X60112142Y28315558D01*
X60112142Y28315558D02*
X60254999Y28244129D01*
X60254999Y28244129D02*
X60469285Y28244129D01*
X59469285Y29244129D02*
X59112142Y28244129D01*
X59112142Y28244129D02*
X58754999Y29244129D01*
X57612142Y28315558D02*
X57754999Y28244129D01*
X57754999Y28244129D02*
X58040714Y28244129D01*
X58040714Y28244129D02*
X58183571Y28315558D01*
X58183571Y28315558D02*
X58254999Y28458415D01*
X58254999Y28458415D02*
X58254999Y29029843D01*
X58254999Y29029843D02*
X58183571Y29172700D01*
X58183571Y29172700D02*
X58040714Y29244129D01*
X58040714Y29244129D02*
X57754999Y29244129D01*
X57754999Y29244129D02*
X57612142Y29172700D01*
X57612142Y29172700D02*
X57540714Y29029843D01*
X57540714Y29029843D02*
X57540714Y28886986D01*
X57540714Y28886986D02*
X58254999Y28744129D01*
X55569285Y29744129D02*
X55569285Y28672700D01*
X55569285Y28672700D02*
X55640714Y28458415D01*
X55640714Y28458415D02*
X55783571Y28315558D01*
X55783571Y28315558D02*
X55997857Y28244129D01*
X55997857Y28244129D02*
X56140714Y28244129D01*
X54855000Y28244129D02*
X54855000Y29744129D01*
X54855000Y29744129D02*
X54283571Y29744129D01*
X54283571Y29744129D02*
X54140714Y29672700D01*
X54140714Y29672700D02*
X54069285Y29601272D01*
X54069285Y29601272D02*
X53997857Y29458415D01*
X53997857Y29458415D02*
X53997857Y29244129D01*
X53997857Y29244129D02*
X54069285Y29101272D01*
X54069285Y29101272D02*
X54140714Y29029843D01*
X54140714Y29029843D02*
X54283571Y28958415D01*
X54283571Y28958415D02*
X54855000Y28958415D01*
X52569285Y28244129D02*
X53426428Y28244129D01*
X52997857Y28244129D02*
X52997857Y29744129D01*
X52997857Y29744129D02*
X53140714Y29529843D01*
X53140714Y29529843D02*
X53283571Y29386986D01*
X53283571Y29386986D02*
X53426428Y29315558D01*
X65933571Y25814129D02*
X65933571Y27314129D01*
X65933571Y25885558D02*
X66076428Y25814129D01*
X66076428Y25814129D02*
X66362142Y25814129D01*
X66362142Y25814129D02*
X66504999Y25885558D01*
X66504999Y25885558D02*
X66576428Y25956986D01*
X66576428Y25956986D02*
X66647856Y26099843D01*
X66647856Y26099843D02*
X66647856Y26528415D01*
X66647856Y26528415D02*
X66576428Y26671272D01*
X66576428Y26671272D02*
X66504999Y26742700D01*
X66504999Y26742700D02*
X66362142Y26814129D01*
X66362142Y26814129D02*
X66076428Y26814129D01*
X66076428Y26814129D02*
X65933571Y26742700D01*
X64576428Y26814129D02*
X64576428Y25814129D01*
X65219285Y26814129D02*
X65219285Y26028415D01*
X65219285Y26028415D02*
X65147856Y25885558D01*
X65147856Y25885558D02*
X65004999Y25814129D01*
X65004999Y25814129D02*
X64790713Y25814129D01*
X64790713Y25814129D02*
X64647856Y25885558D01*
X64647856Y25885558D02*
X64576428Y25956986D01*
X63862142Y25814129D02*
X63862142Y26814129D01*
X63862142Y26528415D02*
X63790713Y26671272D01*
X63790713Y26671272D02*
X63719285Y26742700D01*
X63719285Y26742700D02*
X63576427Y26814129D01*
X63576427Y26814129D02*
X63433570Y26814129D01*
X62933571Y25814129D02*
X62933571Y26814129D01*
X62933571Y27314129D02*
X63004999Y27242700D01*
X63004999Y27242700D02*
X62933571Y27171272D01*
X62933571Y27171272D02*
X62862142Y27242700D01*
X62862142Y27242700D02*
X62933571Y27314129D01*
X62933571Y27314129D02*
X62933571Y27171272D01*
X62219285Y26814129D02*
X62219285Y25814129D01*
X62219285Y26671272D02*
X62147856Y26742700D01*
X62147856Y26742700D02*
X62004999Y26814129D01*
X62004999Y26814129D02*
X61790713Y26814129D01*
X61790713Y26814129D02*
X61647856Y26742700D01*
X61647856Y26742700D02*
X61576428Y26599843D01*
X61576428Y26599843D02*
X61576428Y25814129D01*
X60219285Y26814129D02*
X60219285Y25599843D01*
X60219285Y25599843D02*
X60290713Y25456986D01*
X60290713Y25456986D02*
X60362142Y25385558D01*
X60362142Y25385558D02*
X60504999Y25314129D01*
X60504999Y25314129D02*
X60719285Y25314129D01*
X60719285Y25314129D02*
X60862142Y25385558D01*
X60219285Y25885558D02*
X60362142Y25814129D01*
X60362142Y25814129D02*
X60647856Y25814129D01*
X60647856Y25814129D02*
X60790713Y25885558D01*
X60790713Y25885558D02*
X60862142Y25956986D01*
X60862142Y25956986D02*
X60933570Y26099843D01*
X60933570Y26099843D02*
X60933570Y26528415D01*
X60933570Y26528415D02*
X60862142Y26671272D01*
X60862142Y26671272D02*
X60790713Y26742700D01*
X60790713Y26742700D02*
X60647856Y26814129D01*
X60647856Y26814129D02*
X60362142Y26814129D01*
X60362142Y26814129D02*
X60219285Y26742700D01*
X58604999Y26814129D02*
X58604999Y25814129D01*
X58604999Y26671272D02*
X58533570Y26742700D01*
X58533570Y26742700D02*
X58390713Y26814129D01*
X58390713Y26814129D02*
X58176427Y26814129D01*
X58176427Y26814129D02*
X58033570Y26742700D01*
X58033570Y26742700D02*
X57962142Y26599843D01*
X57962142Y26599843D02*
X57962142Y25814129D01*
X57033570Y25814129D02*
X57176427Y25885558D01*
X57176427Y25885558D02*
X57247856Y25956986D01*
X57247856Y25956986D02*
X57319284Y26099843D01*
X57319284Y26099843D02*
X57319284Y26528415D01*
X57319284Y26528415D02*
X57247856Y26671272D01*
X57247856Y26671272D02*
X57176427Y26742700D01*
X57176427Y26742700D02*
X57033570Y26814129D01*
X57033570Y26814129D02*
X56819284Y26814129D01*
X56819284Y26814129D02*
X56676427Y26742700D01*
X56676427Y26742700D02*
X56604999Y26671272D01*
X56604999Y26671272D02*
X56533570Y26528415D01*
X56533570Y26528415D02*
X56533570Y26099843D01*
X56533570Y26099843D02*
X56604999Y25956986D01*
X56604999Y25956986D02*
X56676427Y25885558D01*
X56676427Y25885558D02*
X56819284Y25814129D01*
X56819284Y25814129D02*
X57033570Y25814129D01*
X55890713Y25814129D02*
X55890713Y26814129D01*
X55890713Y26528415D02*
X55819284Y26671272D01*
X55819284Y26671272D02*
X55747856Y26742700D01*
X55747856Y26742700D02*
X55604998Y26814129D01*
X55604998Y26814129D02*
X55462141Y26814129D01*
X54962142Y25814129D02*
X54962142Y26814129D01*
X54962142Y26671272D02*
X54890713Y26742700D01*
X54890713Y26742700D02*
X54747856Y26814129D01*
X54747856Y26814129D02*
X54533570Y26814129D01*
X54533570Y26814129D02*
X54390713Y26742700D01*
X54390713Y26742700D02*
X54319285Y26599843D01*
X54319285Y26599843D02*
X54319285Y25814129D01*
X54319285Y26599843D02*
X54247856Y26742700D01*
X54247856Y26742700D02*
X54104999Y26814129D01*
X54104999Y26814129D02*
X53890713Y26814129D01*
X53890713Y26814129D02*
X53747856Y26742700D01*
X53747856Y26742700D02*
X53676427Y26599843D01*
X53676427Y26599843D02*
X53676427Y25814129D01*
X52319285Y25814129D02*
X52319285Y26599843D01*
X52319285Y26599843D02*
X52390713Y26742700D01*
X52390713Y26742700D02*
X52533570Y26814129D01*
X52533570Y26814129D02*
X52819285Y26814129D01*
X52819285Y26814129D02*
X52962142Y26742700D01*
X52319285Y25885558D02*
X52462142Y25814129D01*
X52462142Y25814129D02*
X52819285Y25814129D01*
X52819285Y25814129D02*
X52962142Y25885558D01*
X52962142Y25885558D02*
X53033570Y26028415D01*
X53033570Y26028415D02*
X53033570Y26171272D01*
X53033570Y26171272D02*
X52962142Y26314129D01*
X52962142Y26314129D02*
X52819285Y26385558D01*
X52819285Y26385558D02*
X52462142Y26385558D01*
X52462142Y26385558D02*
X52319285Y26456986D01*
X51390713Y25814129D02*
X51533570Y25885558D01*
X51533570Y25885558D02*
X51604999Y26028415D01*
X51604999Y26028415D02*
X51604999Y27314129D01*
X63769285Y23384129D02*
X63912142Y23455558D01*
X63912142Y23455558D02*
X63983571Y23526986D01*
X63983571Y23526986D02*
X64054999Y23669843D01*
X64054999Y23669843D02*
X64054999Y24098415D01*
X64054999Y24098415D02*
X63983571Y24241272D01*
X63983571Y24241272D02*
X63912142Y24312700D01*
X63912142Y24312700D02*
X63769285Y24384129D01*
X63769285Y24384129D02*
X63554999Y24384129D01*
X63554999Y24384129D02*
X63412142Y24312700D01*
X63412142Y24312700D02*
X63340714Y24241272D01*
X63340714Y24241272D02*
X63269285Y24098415D01*
X63269285Y24098415D02*
X63269285Y23669843D01*
X63269285Y23669843D02*
X63340714Y23526986D01*
X63340714Y23526986D02*
X63412142Y23455558D01*
X63412142Y23455558D02*
X63554999Y23384129D01*
X63554999Y23384129D02*
X63769285Y23384129D01*
X62626428Y24384129D02*
X62626428Y22884129D01*
X62626428Y24312700D02*
X62483571Y24384129D01*
X62483571Y24384129D02*
X62197856Y24384129D01*
X62197856Y24384129D02*
X62054999Y24312700D01*
X62054999Y24312700D02*
X61983571Y24241272D01*
X61983571Y24241272D02*
X61912142Y24098415D01*
X61912142Y24098415D02*
X61912142Y23669843D01*
X61912142Y23669843D02*
X61983571Y23526986D01*
X61983571Y23526986D02*
X62054999Y23455558D01*
X62054999Y23455558D02*
X62197856Y23384129D01*
X62197856Y23384129D02*
X62483571Y23384129D01*
X62483571Y23384129D02*
X62626428Y23455558D01*
X60697856Y23455558D02*
X60840713Y23384129D01*
X60840713Y23384129D02*
X61126428Y23384129D01*
X61126428Y23384129D02*
X61269285Y23455558D01*
X61269285Y23455558D02*
X61340713Y23598415D01*
X61340713Y23598415D02*
X61340713Y24169843D01*
X61340713Y24169843D02*
X61269285Y24312700D01*
X61269285Y24312700D02*
X61126428Y24384129D01*
X61126428Y24384129D02*
X60840713Y24384129D01*
X60840713Y24384129D02*
X60697856Y24312700D01*
X60697856Y24312700D02*
X60626428Y24169843D01*
X60626428Y24169843D02*
X60626428Y24026986D01*
X60626428Y24026986D02*
X61340713Y23884129D01*
X59983571Y23384129D02*
X59983571Y24384129D01*
X59983571Y24098415D02*
X59912142Y24241272D01*
X59912142Y24241272D02*
X59840714Y24312700D01*
X59840714Y24312700D02*
X59697856Y24384129D01*
X59697856Y24384129D02*
X59554999Y24384129D01*
X58412143Y23384129D02*
X58412143Y24169843D01*
X58412143Y24169843D02*
X58483571Y24312700D01*
X58483571Y24312700D02*
X58626428Y24384129D01*
X58626428Y24384129D02*
X58912143Y24384129D01*
X58912143Y24384129D02*
X59055000Y24312700D01*
X58412143Y23455558D02*
X58555000Y23384129D01*
X58555000Y23384129D02*
X58912143Y23384129D01*
X58912143Y23384129D02*
X59055000Y23455558D01*
X59055000Y23455558D02*
X59126428Y23598415D01*
X59126428Y23598415D02*
X59126428Y23741272D01*
X59126428Y23741272D02*
X59055000Y23884129D01*
X59055000Y23884129D02*
X58912143Y23955558D01*
X58912143Y23955558D02*
X58555000Y23955558D01*
X58555000Y23955558D02*
X58412143Y24026986D01*
X57912142Y24384129D02*
X57340714Y24384129D01*
X57697857Y24884129D02*
X57697857Y23598415D01*
X57697857Y23598415D02*
X57626428Y23455558D01*
X57626428Y23455558D02*
X57483571Y23384129D01*
X57483571Y23384129D02*
X57340714Y23384129D01*
X56840714Y23384129D02*
X56840714Y24384129D01*
X56840714Y24884129D02*
X56912142Y24812700D01*
X56912142Y24812700D02*
X56840714Y24741272D01*
X56840714Y24741272D02*
X56769285Y24812700D01*
X56769285Y24812700D02*
X56840714Y24884129D01*
X56840714Y24884129D02*
X56840714Y24741272D01*
X55912142Y23384129D02*
X56054999Y23455558D01*
X56054999Y23455558D02*
X56126428Y23526986D01*
X56126428Y23526986D02*
X56197856Y23669843D01*
X56197856Y23669843D02*
X56197856Y24098415D01*
X56197856Y24098415D02*
X56126428Y24241272D01*
X56126428Y24241272D02*
X56054999Y24312700D01*
X56054999Y24312700D02*
X55912142Y24384129D01*
X55912142Y24384129D02*
X55697856Y24384129D01*
X55697856Y24384129D02*
X55554999Y24312700D01*
X55554999Y24312700D02*
X55483571Y24241272D01*
X55483571Y24241272D02*
X55412142Y24098415D01*
X55412142Y24098415D02*
X55412142Y23669843D01*
X55412142Y23669843D02*
X55483571Y23526986D01*
X55483571Y23526986D02*
X55554999Y23455558D01*
X55554999Y23455558D02*
X55697856Y23384129D01*
X55697856Y23384129D02*
X55912142Y23384129D01*
X54769285Y24384129D02*
X54769285Y23384129D01*
X54769285Y24241272D02*
X54697856Y24312700D01*
X54697856Y24312700D02*
X54554999Y24384129D01*
X54554999Y24384129D02*
X54340713Y24384129D01*
X54340713Y24384129D02*
X54197856Y24312700D01*
X54197856Y24312700D02*
X54126428Y24169843D01*
X54126428Y24169843D02*
X54126428Y23384129D01*
X30595714Y46229843D02*
X31095714Y46229843D01*
X31095714Y45444129D02*
X31095714Y46944129D01*
X31095714Y46944129D02*
X30381428Y46944129D01*
X29167143Y45444129D02*
X29167143Y46229843D01*
X29167143Y46229843D02*
X29238571Y46372700D01*
X29238571Y46372700D02*
X29381428Y46444129D01*
X29381428Y46444129D02*
X29667143Y46444129D01*
X29667143Y46444129D02*
X29810000Y46372700D01*
X29167143Y45515558D02*
X29310000Y45444129D01*
X29310000Y45444129D02*
X29667143Y45444129D01*
X29667143Y45444129D02*
X29810000Y45515558D01*
X29810000Y45515558D02*
X29881428Y45658415D01*
X29881428Y45658415D02*
X29881428Y45801272D01*
X29881428Y45801272D02*
X29810000Y45944129D01*
X29810000Y45944129D02*
X29667143Y46015558D01*
X29667143Y46015558D02*
X29310000Y46015558D01*
X29310000Y46015558D02*
X29167143Y46086986D01*
X28452857Y45444129D02*
X28452857Y46944129D01*
X28452857Y46372700D02*
X28310000Y46444129D01*
X28310000Y46444129D02*
X28024285Y46444129D01*
X28024285Y46444129D02*
X27881428Y46372700D01*
X27881428Y46372700D02*
X27810000Y46301272D01*
X27810000Y46301272D02*
X27738571Y46158415D01*
X27738571Y46158415D02*
X27738571Y45729843D01*
X27738571Y45729843D02*
X27810000Y45586986D01*
X27810000Y45586986D02*
X27881428Y45515558D01*
X27881428Y45515558D02*
X28024285Y45444129D01*
X28024285Y45444129D02*
X28310000Y45444129D01*
X28310000Y45444129D02*
X28452857Y45515558D01*
X26309999Y46872700D02*
X26452857Y46944129D01*
X26452857Y46944129D02*
X26667142Y46944129D01*
X26667142Y46944129D02*
X26881428Y46872700D01*
X26881428Y46872700D02*
X27024285Y46729843D01*
X27024285Y46729843D02*
X27095714Y46586986D01*
X27095714Y46586986D02*
X27167142Y46301272D01*
X27167142Y46301272D02*
X27167142Y46086986D01*
X27167142Y46086986D02*
X27095714Y45801272D01*
X27095714Y45801272D02*
X27024285Y45658415D01*
X27024285Y45658415D02*
X26881428Y45515558D01*
X26881428Y45515558D02*
X26667142Y45444129D01*
X26667142Y45444129D02*
X26524285Y45444129D01*
X26524285Y45444129D02*
X26309999Y45515558D01*
X26309999Y45515558D02*
X26238571Y45586986D01*
X26238571Y45586986D02*
X26238571Y46086986D01*
X26238571Y46086986D02*
X26524285Y46086986D01*
X24881428Y45444129D02*
X25595714Y45444129D01*
X25595714Y45444129D02*
X25595714Y46944129D01*
X23695713Y46944129D02*
X22838571Y46944129D01*
X23267142Y45444129D02*
X23267142Y46944129D01*
X21767142Y45515558D02*
X21909999Y45444129D01*
X21909999Y45444129D02*
X22195714Y45444129D01*
X22195714Y45444129D02*
X22338571Y45515558D01*
X22338571Y45515558D02*
X22409999Y45658415D01*
X22409999Y45658415D02*
X22409999Y46229843D01*
X22409999Y46229843D02*
X22338571Y46372700D01*
X22338571Y46372700D02*
X22195714Y46444129D01*
X22195714Y46444129D02*
X21909999Y46444129D01*
X21909999Y46444129D02*
X21767142Y46372700D01*
X21767142Y46372700D02*
X21695714Y46229843D01*
X21695714Y46229843D02*
X21695714Y46086986D01*
X21695714Y46086986D02*
X22409999Y45944129D01*
X21052857Y45444129D02*
X21052857Y46444129D01*
X21052857Y46158415D02*
X20981428Y46301272D01*
X20981428Y46301272D02*
X20910000Y46372700D01*
X20910000Y46372700D02*
X20767142Y46444129D01*
X20767142Y46444129D02*
X20624285Y46444129D01*
X20124286Y45444129D02*
X20124286Y46444129D01*
X20124286Y46301272D02*
X20052857Y46372700D01*
X20052857Y46372700D02*
X19910000Y46444129D01*
X19910000Y46444129D02*
X19695714Y46444129D01*
X19695714Y46444129D02*
X19552857Y46372700D01*
X19552857Y46372700D02*
X19481429Y46229843D01*
X19481429Y46229843D02*
X19481429Y45444129D01*
X19481429Y46229843D02*
X19410000Y46372700D01*
X19410000Y46372700D02*
X19267143Y46444129D01*
X19267143Y46444129D02*
X19052857Y46444129D01*
X19052857Y46444129D02*
X18910000Y46372700D01*
X18910000Y46372700D02*
X18838571Y46229843D01*
X18838571Y46229843D02*
X18838571Y45444129D01*
X18124286Y45444129D02*
X18124286Y46444129D01*
X18124286Y46944129D02*
X18195714Y46872700D01*
X18195714Y46872700D02*
X18124286Y46801272D01*
X18124286Y46801272D02*
X18052857Y46872700D01*
X18052857Y46872700D02*
X18124286Y46944129D01*
X18124286Y46944129D02*
X18124286Y46801272D01*
X17410000Y46444129D02*
X17410000Y45444129D01*
X17410000Y46301272D02*
X17338571Y46372700D01*
X17338571Y46372700D02*
X17195714Y46444129D01*
X17195714Y46444129D02*
X16981428Y46444129D01*
X16981428Y46444129D02*
X16838571Y46372700D01*
X16838571Y46372700D02*
X16767143Y46229843D01*
X16767143Y46229843D02*
X16767143Y45444129D01*
X15410000Y45444129D02*
X15410000Y46229843D01*
X15410000Y46229843D02*
X15481428Y46372700D01*
X15481428Y46372700D02*
X15624285Y46444129D01*
X15624285Y46444129D02*
X15910000Y46444129D01*
X15910000Y46444129D02*
X16052857Y46372700D01*
X15410000Y45515558D02*
X15552857Y45444129D01*
X15552857Y45444129D02*
X15910000Y45444129D01*
X15910000Y45444129D02*
X16052857Y45515558D01*
X16052857Y45515558D02*
X16124285Y45658415D01*
X16124285Y45658415D02*
X16124285Y45801272D01*
X16124285Y45801272D02*
X16052857Y45944129D01*
X16052857Y45944129D02*
X15910000Y46015558D01*
X15910000Y46015558D02*
X15552857Y46015558D01*
X15552857Y46015558D02*
X15410000Y46086986D01*
X14481428Y45444129D02*
X14624285Y45515558D01*
X14624285Y45515558D02*
X14695714Y45658415D01*
X14695714Y45658415D02*
X14695714Y46944129D01*
X28952856Y43014129D02*
X28952856Y44514129D01*
X28952856Y44514129D02*
X28381427Y44514129D01*
X28381427Y44514129D02*
X28238570Y44442700D01*
X28238570Y44442700D02*
X28167141Y44371272D01*
X28167141Y44371272D02*
X28095713Y44228415D01*
X28095713Y44228415D02*
X28095713Y44014129D01*
X28095713Y44014129D02*
X28167141Y43871272D01*
X28167141Y43871272D02*
X28238570Y43799843D01*
X28238570Y43799843D02*
X28381427Y43728415D01*
X28381427Y43728415D02*
X28952856Y43728415D01*
X27452856Y43014129D02*
X27452856Y44514129D01*
X27452856Y44514129D02*
X27095713Y44514129D01*
X27095713Y44514129D02*
X26881427Y44442700D01*
X26881427Y44442700D02*
X26738570Y44299843D01*
X26738570Y44299843D02*
X26667141Y44156986D01*
X26667141Y44156986D02*
X26595713Y43871272D01*
X26595713Y43871272D02*
X26595713Y43656986D01*
X26595713Y43656986D02*
X26667141Y43371272D01*
X26667141Y43371272D02*
X26738570Y43228415D01*
X26738570Y43228415D02*
X26881427Y43085558D01*
X26881427Y43085558D02*
X27095713Y43014129D01*
X27095713Y43014129D02*
X27452856Y43014129D01*
X25167141Y43014129D02*
X26024284Y43014129D01*
X25595713Y43014129D02*
X25595713Y44514129D01*
X25595713Y44514129D02*
X25738570Y44299843D01*
X25738570Y44299843D02*
X25881427Y44156986D01*
X25881427Y44156986D02*
X26024284Y44085558D01*
X24238570Y44514129D02*
X24095713Y44514129D01*
X24095713Y44514129D02*
X23952856Y44442700D01*
X23952856Y44442700D02*
X23881428Y44371272D01*
X23881428Y44371272D02*
X23809999Y44228415D01*
X23809999Y44228415D02*
X23738570Y43942700D01*
X23738570Y43942700D02*
X23738570Y43585558D01*
X23738570Y43585558D02*
X23809999Y43299843D01*
X23809999Y43299843D02*
X23881428Y43156986D01*
X23881428Y43156986D02*
X23952856Y43085558D01*
X23952856Y43085558D02*
X24095713Y43014129D01*
X24095713Y43014129D02*
X24238570Y43014129D01*
X24238570Y43014129D02*
X24381428Y43085558D01*
X24381428Y43085558D02*
X24452856Y43156986D01*
X24452856Y43156986D02*
X24524285Y43299843D01*
X24524285Y43299843D02*
X24595713Y43585558D01*
X24595713Y43585558D02*
X24595713Y43942700D01*
X24595713Y43942700D02*
X24524285Y44228415D01*
X24524285Y44228415D02*
X24452856Y44371272D01*
X24452856Y44371272D02*
X24381428Y44442700D01*
X24381428Y44442700D02*
X24238570Y44514129D01*
X23238571Y44514129D02*
X22309999Y44514129D01*
X22309999Y44514129D02*
X22809999Y43942700D01*
X22809999Y43942700D02*
X22595714Y43942700D01*
X22595714Y43942700D02*
X22452857Y43871272D01*
X22452857Y43871272D02*
X22381428Y43799843D01*
X22381428Y43799843D02*
X22309999Y43656986D01*
X22309999Y43656986D02*
X22309999Y43299843D01*
X22309999Y43299843D02*
X22381428Y43156986D01*
X22381428Y43156986D02*
X22452857Y43085558D01*
X22452857Y43085558D02*
X22595714Y43014129D01*
X22595714Y43014129D02*
X23024285Y43014129D01*
X23024285Y43014129D02*
X23167142Y43085558D01*
X23167142Y43085558D02*
X23238571Y43156986D01*
X20910000Y44014129D02*
X20552857Y43014129D01*
X20552857Y43014129D02*
X20195714Y44014129D01*
X18838571Y43014129D02*
X19695714Y43014129D01*
X19267143Y43014129D02*
X19267143Y44514129D01*
X19267143Y44514129D02*
X19410000Y44299843D01*
X19410000Y44299843D02*
X19552857Y44156986D01*
X19552857Y44156986D02*
X19695714Y44085558D01*
X18195715Y43156986D02*
X18124286Y43085558D01*
X18124286Y43085558D02*
X18195715Y43014129D01*
X18195715Y43014129D02*
X18267143Y43085558D01*
X18267143Y43085558D02*
X18195715Y43156986D01*
X18195715Y43156986D02*
X18195715Y43014129D01*
X17552857Y44371272D02*
X17481429Y44442700D01*
X17481429Y44442700D02*
X17338572Y44514129D01*
X17338572Y44514129D02*
X16981429Y44514129D01*
X16981429Y44514129D02*
X16838572Y44442700D01*
X16838572Y44442700D02*
X16767143Y44371272D01*
X16767143Y44371272D02*
X16695714Y44228415D01*
X16695714Y44228415D02*
X16695714Y44085558D01*
X16695714Y44085558D02*
X16767143Y43871272D01*
X16767143Y43871272D02*
X17624286Y43014129D01*
X17624286Y43014129D02*
X16695714Y43014129D01*
M02*
