M48
; DRILL file {KiCad (7.0.0)} date Sun Jun  2 18:05:41 2024
; FORMAT={-:-/ absolute / inch / decimal}
; #@! TF.CreationDate,2024-06-02T18:05:41+02:00
; #@! TF.GenerationSoftware,Kicad,Pcbnew,(7.0.0)
; #@! TF.FileFunction,Plated,1,2,PTH
FMAT,2
INCH
; #@! TA.AperFunction,Plated,PTH,ViaDrill
T1C0.0157
; #@! TA.AperFunction,Plated,PTH,ComponentDrill
T2C0.0295
; #@! TA.AperFunction,Plated,PTH,ComponentDrill
T3C0.0315
; #@! TA.AperFunction,Plated,PTH,ComponentDrill
T4C0.0382
; #@! TA.AperFunction,Plated,PTH,ComponentDrill
T5C0.0390
; #@! TA.AperFunction,Plated,PTH,ComponentDrill
T6C0.0394
; #@! TA.AperFunction,Plated,PTH,ComponentDrill
T7C0.0512
; #@! TA.AperFunction,Plated,PTH,ComponentDrill
T8C0.0933
; #@! TA.AperFunction,Plated,PTH,ComponentDrill
T9C0.1260
%
G90
G05
T1
X0.525Y0.4005
X0.78Y0.503
X0.96Y0.503
X1.0Y1.413
X1.0125Y1.3005
X1.0625Y1.3255
X1.1Y1.013
X1.1625Y0.763
X1.25Y1.163
X1.2825Y0.6205
X1.3Y0.323
X1.325Y1.413
X1.34Y1.503
X1.37Y0.813
X1.4Y0.963
X1.42Y1.313
X1.42Y1.123
X1.54Y1.343
X1.58Y1.443
X1.58Y1.083
X1.6Y1.203
X1.6Y0.863
X1.68Y1.343
X1.8047Y1.423
X1.8125Y1.638
X1.8159Y1.3871
X1.871Y0.842
X1.871Y0.738
X1.8724Y1.4506
X1.89Y1.313
X1.895Y1.363
X1.975Y0.813
X2.075Y1.913
X2.075Y1.563
X2.075Y1.213
X2.16Y0.583
X2.5Y0.238
X2.6Y1.913
X2.6Y1.763
X2.6Y1.713
X2.6Y1.563
X2.6Y1.213
X2.64Y0.603
X2.7625Y1.263
X2.8125Y1.663
X3.025Y1.5255
T2
X0.825Y0.588
X0.825Y0.338
X0.875Y0.538
X0.875Y0.288
X0.925Y0.588
X0.925Y0.338
T3
X0.6Y0.588
X0.6Y0.288
X0.7Y0.588
X0.7Y0.288
X0.8Y0.913
X0.8Y0.8146
X0.95Y1.013
X0.95Y0.913
X0.95Y0.813
X0.95Y0.713
X1.05Y0.588
X1.05Y0.288
X1.15Y0.588
X1.15Y0.288
X1.25Y1.013
X1.25Y0.913
X1.25Y0.813
X1.25Y0.713
X1.425Y1.638
X1.425Y1.513
X1.5234Y1.513
X1.6266Y1.513
X1.725Y1.638
X1.725Y1.513
X1.75Y0.313
X1.7508Y0.463
X1.825Y1.863
X1.825Y1.7646
X1.8484Y0.313
X1.8492Y0.463
X2.1375Y0.788
X2.2162Y0.788
X2.9625Y1.363
X2.9625Y1.263
X2.9625Y1.163
X2.9625Y1.063
X2.9625Y0.963
X2.9625Y0.863
X2.9625Y0.763
X2.9625Y0.663
X2.9625Y0.563
X2.9625Y0.463
X2.9625Y0.363
X3.2625Y1.363
X3.2625Y1.263
X3.2625Y1.163
X3.2625Y1.063
X3.2625Y0.963
X3.2625Y0.863
X3.2625Y0.763
X3.2625Y0.663
X3.2625Y0.563
X3.2625Y0.463
X3.2625Y0.363
T4
X0.28Y0.7449
X0.28Y0.6642
X0.28Y0.5618
X0.28Y0.4811
X0.378Y0.7449
X0.378Y0.4811
T5
X1.3978Y1.863
X1.575Y1.863
X3.1Y1.863
X3.2772Y1.863
T6
X0.05Y0.063
X0.15Y0.063
X0.25Y0.063
X0.35Y0.063
X0.45Y0.063
X0.525Y1.188
X0.55Y1.613
X0.55Y1.513
X0.55Y0.063
X0.65Y1.613
X0.65Y1.513
X0.65Y0.063
X0.7219Y1.188
X0.75Y1.613
X0.75Y1.513
X0.75Y0.063
X0.85Y1.613
X0.85Y1.513
X0.85Y0.063
X0.95Y1.613
X0.95Y1.513
X0.95Y0.063
X1.05Y1.613
X1.05Y1.513
X1.05Y0.063
X1.15Y1.363
X1.15Y1.263
X1.15Y0.063
X1.25Y1.363
X1.25Y1.263
X1.25Y0.063
X1.35Y0.063
X1.45Y0.063
X1.55Y0.063
X1.65Y0.163
X1.65Y0.063
X1.75Y0.163
X1.75Y0.063
X1.85Y0.163
X1.85Y0.063
X1.95Y0.163
X1.95Y0.063
X2.05Y0.163
X2.05Y0.063
X2.15Y0.163
X2.15Y0.063
X2.25Y0.163
X2.25Y0.063
X2.35Y0.163
X2.35Y0.063
X2.45Y0.463
X2.45Y0.363
X2.45Y0.163
X2.45Y0.063
X2.55Y0.463
X2.55Y0.363
X2.55Y0.163
X2.55Y0.063
X2.65Y0.463
X2.65Y0.363
X2.65Y0.163
X2.65Y0.063
X2.75Y0.463
X2.75Y0.363
X2.75Y0.163
X2.75Y0.063
X2.85Y0.163
X2.85Y0.063
X2.95Y0.163
X2.95Y0.063
X3.05Y0.163
X3.05Y0.063
X3.15Y0.163
X3.15Y0.063
X3.25Y0.163
X3.25Y0.063
X3.35Y0.163
X3.35Y0.063
X3.4125Y1.113
X3.4125Y1.0228
X3.4125Y0.9327
X3.4125Y0.8425
X3.4125Y0.7524
X3.45Y0.163
X3.45Y0.063
X3.5125Y1.1581
X3.5125Y1.0679
X3.5125Y0.9778
X3.5125Y0.8876
X3.5125Y0.7974
X3.55Y0.163
X3.55Y0.063
X3.6125Y1.113
X3.6125Y1.0228
X3.6125Y0.9327
X3.6125Y0.8425
X3.6125Y0.7524
X3.65Y0.063
X3.75Y0.063
X3.85Y0.063
T7
X1.3486Y1.765
X1.6246Y1.765
X3.0508Y1.765
X3.3268Y1.765
T8
X0.13Y0.613
X0.1619Y0.8791
X0.1619Y0.3469
T9
X3.5109Y1.4352
X3.5109Y0.451
T0
M30
