%TF.GenerationSoftware,KiCad,Pcbnew,(7.0.0)*%
%TF.CreationDate,2024-06-02T18:05:15+02:00*%
%TF.ProjectId,rc-fabgl,72632d66-6162-4676-9c2e-6b696361645f,rev?*%
%TF.SameCoordinates,PX9157080PY9071968*%
%TF.FileFunction,Soldermask,Top*%
%TF.FilePolarity,Negative*%
%FSLAX46Y46*%
G04 Gerber Fmt 4.6, Leading zero omitted, Abs format (unit mm)*
G04 Created by KiCad (PCBNEW (7.0.0)) date 2024-06-02 18:05:15*
%MOMM*%
%LPD*%
G01*
G04 APERTURE LIST*
G04 Aperture macros list*
%AMRoundRect*
0 Rectangle with rounded corners*
0 $1 Rounding radius*
0 $2 $3 $4 $5 $6 $7 $8 $9 X,Y pos of 4 corners*
0 Add a 4 corners polygon primitive as box body*
4,1,4,$2,$3,$4,$5,$6,$7,$8,$9,$2,$3,0*
0 Add four circle primitives for the rounded corners*
1,1,$1+$1,$2,$3*
1,1,$1+$1,$4,$5*
1,1,$1+$1,$6,$7*
1,1,$1+$1,$8,$9*
0 Add four rect primitives between the rounded corners*
20,1,$1+$1,$2,$3,$4,$5,0*
20,1,$1+$1,$4,$5,$6,$7,0*
20,1,$1+$1,$6,$7,$8,$9,0*
20,1,$1+$1,$8,$9,$2,$3,0*%
G04 Aperture macros list end*
%ADD10RoundRect,0.277000X-0.825000X-0.150000X0.825000X-0.150000X0.825000X0.150000X-0.825000X0.150000X0*%
%ADD11RoundRect,0.127000X0.750000X-1.000000X0.750000X1.000000X-0.750000X1.000000X-0.750000X-1.000000X0*%
%ADD12RoundRect,0.127000X1.900000X-1.000000X1.900000X1.000000X-1.900000X1.000000X-1.900000X-1.000000X0*%
%ADD13C,3.808999*%
%ADD14C,1.763000*%
%ADD15O,1.854000X1.854000*%
%ADD16C,1.854000*%
%ADD17RoundRect,0.127000X1.000000X-0.400000X1.000000X0.400000X-1.000000X0.400000X-1.000000X-0.400000X0*%
%ADD18RoundRect,0.127000X0.665000X-0.665000X0.665000X0.665000X-0.665000X0.665000X-0.665000X-0.665000X0*%
%ADD19O,1.954000X1.954000*%
%ADD20RoundRect,0.552000X0.425000X-0.425000X0.425000X0.425000X-0.425000X0.425000X-0.425000X-0.425000X0*%
%ADD21C,4.254000*%
%ADD22RoundRect,0.527000X0.400000X-0.400000X0.400000X0.400000X-0.400000X0.400000X-0.400000X-0.400000X0*%
%ADD23C,1.554000*%
%ADD24C,1.954000*%
%ADD25RoundRect,0.527000X-0.400000X-0.400000X0.400000X-0.400000X0.400000X0.400000X-0.400000X0.400000X0*%
%ADD26C,2.254000*%
%ADD27RoundRect,0.627000X-0.500000X-0.500000X0.500000X-0.500000X0.500000X0.500000X-0.500000X0.500000X0*%
%ADD28C,2.354000*%
%ADD29C,2.004000*%
%ADD30C,3.454000*%
G04 APERTURE END LIST*
D10*
%TO.C,U3*%
X38165000Y32334200D03*
X38165000Y31064200D03*
X38165000Y29794200D03*
X38165000Y28524200D03*
X38165000Y27254200D03*
X38165000Y25984200D03*
X38165000Y24714200D03*
X43115000Y24714200D03*
X43115000Y25984200D03*
X43115000Y27254200D03*
X43115000Y28524200D03*
X43115000Y29794200D03*
X43115000Y31064200D03*
X43115000Y32334200D03*
%TD*%
D11*
%TO.C,U4*%
X35800000Y8102200D03*
D12*
X38100000Y14402200D03*
D11*
X38100000Y8102200D03*
X40400000Y8102200D03*
%TD*%
D13*
%TO.C,J4*%
X4112000Y22330200D03*
X4112000Y8810200D03*
X3302000Y15570200D03*
D14*
X9602000Y12220200D03*
X9602000Y18920200D03*
X7112000Y12220200D03*
X7112000Y18920200D03*
X7112000Y14270200D03*
X7112000Y16870200D03*
%TD*%
D15*
%TO.C,R3*%
X31749999Y23190199D03*
D16*
X24130000Y23190200D03*
%TD*%
%TO.C,C7*%
X20320000Y23190200D03*
X20320000Y20690200D03*
%TD*%
D17*
%TO.C,U2*%
X50165000Y48590200D03*
X50165000Y47320200D03*
X50165000Y46050200D03*
X50165000Y44780200D03*
X50165000Y43510200D03*
X50165000Y42240200D03*
X50165000Y40970200D03*
X50165000Y39700200D03*
X50165000Y38430200D03*
X50165000Y37160200D03*
X50165000Y35890200D03*
X50165000Y34620200D03*
X50165000Y33350200D03*
X50165000Y32080200D03*
X50165000Y30810200D03*
X50165000Y29540200D03*
X50165000Y28270200D03*
X50165000Y27000200D03*
X50165000Y25730200D03*
X68435000Y25730200D03*
X68435000Y27000200D03*
X68435000Y28270200D03*
X68435000Y29540200D03*
X68435000Y30810200D03*
X68435000Y32080200D03*
X68435000Y33350200D03*
X68435000Y34620200D03*
X68435000Y35890200D03*
X68435000Y37160200D03*
X68435000Y38430200D03*
X68435000Y39700200D03*
X68435000Y40970200D03*
X68435000Y42240200D03*
X68435000Y43510200D03*
X68435000Y44780200D03*
X68435000Y46050200D03*
X68435000Y47320200D03*
X68435000Y48590200D03*
D18*
X58300000Y41090200D03*
X58300000Y39255200D03*
X60135000Y39255200D03*
X60135000Y41090200D03*
X60135000Y42925200D03*
X58300000Y42925200D03*
X56465000Y42925200D03*
X56465000Y41090200D03*
X56465000Y39255200D03*
%TD*%
D19*
%TO.C,J3*%
X26669999Y40970199D03*
X26669999Y38430199D03*
X24129999Y40970199D03*
X24129999Y38430199D03*
X21589999Y40970199D03*
X21589999Y38430199D03*
X19049999Y40970199D03*
X19049999Y38430199D03*
X16509999Y40970199D03*
X16509999Y38430199D03*
D20*
X13970000Y40970200D03*
X13970000Y38430200D03*
%TD*%
D21*
%TO.C,J5*%
X89177500Y36455200D03*
X89177500Y11455200D03*
D16*
X91757500Y19110200D03*
X91757500Y21400200D03*
X91757500Y23690200D03*
X91757500Y25980200D03*
X91757500Y28270200D03*
X89217500Y20255200D03*
X89217500Y22545200D03*
X89217500Y24835200D03*
X89217500Y27125200D03*
X89217500Y29415200D03*
X86677500Y19110200D03*
X86677500Y21400200D03*
X86677500Y23690200D03*
X86677500Y25980200D03*
D22*
X86677500Y28270200D03*
%TD*%
D15*
%TO.C,R14*%
X82867499Y9220199D03*
D16*
X75247500Y9220200D03*
%TD*%
D15*
%TO.C,R13*%
X82867499Y11760199D03*
D16*
X75247500Y11760200D03*
%TD*%
D15*
%TO.C,R20*%
X82867499Y14300199D03*
D16*
X75247500Y14300200D03*
%TD*%
D15*
%TO.C,R17*%
X82867499Y16840199D03*
D16*
X75247500Y16840200D03*
%TD*%
D15*
%TO.C,R12*%
X82867499Y19380199D03*
D16*
X75247500Y19380200D03*
%TD*%
D15*
%TO.C,R19*%
X82867499Y21920199D03*
D16*
X75247500Y21920200D03*
%TD*%
D15*
%TO.C,R16*%
X82867499Y24460199D03*
D16*
X75247500Y24460200D03*
%TD*%
D15*
%TO.C,R11*%
X82867499Y27000199D03*
D16*
X75247500Y27000200D03*
%TD*%
D15*
%TO.C,R18*%
X82867499Y29540199D03*
D16*
X75247500Y29540200D03*
%TD*%
D15*
%TO.C,R15*%
X82867499Y32080199D03*
D16*
X75247500Y32080200D03*
%TD*%
D15*
%TO.C,R10*%
X82867499Y34620199D03*
D16*
X75247500Y34620200D03*
%TD*%
D15*
%TO.C,R7*%
X17779999Y14935199D03*
D16*
X17780000Y7315200D03*
%TD*%
D15*
%TO.C,R6*%
X15239999Y7315199D03*
D16*
X15240000Y14935200D03*
%TD*%
D15*
%TO.C,R9*%
X29209999Y14935199D03*
D16*
X29210000Y7315200D03*
%TD*%
D15*
%TO.C,R8*%
X26669999Y7315199D03*
D16*
X26670000Y14935200D03*
%TD*%
D15*
%TO.C,R2*%
X31749999Y25730199D03*
D16*
X24130000Y25730200D03*
%TD*%
D15*
%TO.C,R4*%
X31749999Y20650199D03*
D16*
X24130000Y20650200D03*
%TD*%
D15*
%TO.C,R5*%
X31749999Y18110199D03*
D16*
X24130000Y18110200D03*
%TD*%
D15*
%TO.C,R1*%
X36194999Y41605199D03*
D16*
X43815000Y41605200D03*
%TD*%
D23*
%TO.C,Q1*%
X23495000Y14935200D03*
X20955000Y14935200D03*
X22225000Y13665200D03*
%TD*%
%TO.C,Q2*%
X23495000Y8585200D03*
X20955000Y8585200D03*
X22225000Y7315200D03*
%TD*%
D19*
%TO.C,JP6*%
X69849999Y9220199D03*
D24*
X69850000Y11760200D03*
%TD*%
D19*
%TO.C,JP5*%
X67309999Y9220199D03*
D24*
X67310000Y11760200D03*
%TD*%
D19*
%TO.C,JP4*%
X64769999Y9220199D03*
D24*
X64770000Y11760200D03*
%TD*%
D19*
%TO.C,JP3*%
X62229999Y9220199D03*
D24*
X62230000Y11760200D03*
%TD*%
D19*
%TO.C,JP2*%
X31749999Y32080199D03*
D24*
X31750000Y34620200D03*
%TD*%
D16*
%TO.C,C6*%
X41315000Y38430200D03*
X43815000Y38430200D03*
%TD*%
%TO.C,C4*%
X46355000Y44820200D03*
X46355000Y47320200D03*
%TD*%
D25*
%TO.C,C3*%
X54292500Y20015200D03*
D16*
X56292500Y20015200D03*
%TD*%
%TO.C,C1*%
X44450000Y7950200D03*
X46950000Y7950200D03*
%TD*%
D26*
%TO.C,BZ1*%
X18335000Y30175200D03*
D27*
X13335000Y30175200D03*
%TD*%
D28*
%TO.C,SW2*%
X77490000Y44830200D03*
D29*
X78740000Y47320200D03*
X83240000Y47320200D03*
D28*
X84500000Y44830200D03*
%TD*%
%TO.C,SW1*%
X41265000Y44830200D03*
D29*
X40005000Y47320200D03*
X35505000Y47320200D03*
D28*
X34255000Y44830200D03*
%TD*%
D19*
%TO.C,JP1*%
X29209999Y32080199D03*
D24*
X29210000Y34620200D03*
%TD*%
D19*
%TO.C,J2*%
X90169999Y4140199D03*
X87629999Y4140199D03*
X85089999Y4140199D03*
X82549999Y4140199D03*
X80009999Y4140199D03*
X77469999Y4140199D03*
X74929999Y4140199D03*
X72389999Y4140199D03*
X69849999Y4140199D03*
X67309999Y4140199D03*
X64769999Y4140199D03*
X62229999Y4140199D03*
X59689999Y4140199D03*
X57149999Y4140199D03*
X54609999Y4140199D03*
X52069999Y4140199D03*
X49529999Y4140199D03*
X46989999Y4140199D03*
X44449999Y4140199D03*
D24*
X41910000Y4140200D03*
%TD*%
D16*
%TO.C,C5*%
X38695000Y38430200D03*
X36195000Y38430200D03*
%TD*%
%TO.C,C2*%
X44470001Y11760200D03*
X46970001Y11760200D03*
%TD*%
D19*
%TO.C,J1*%
X97789999Y1600199D03*
X95249999Y1600199D03*
X92709999Y1600199D03*
X90169999Y1600199D03*
X87629999Y1600199D03*
X85089999Y1600199D03*
X82549999Y1600199D03*
X80009999Y1600199D03*
X77469999Y1600199D03*
X74929999Y1600199D03*
X72389999Y1600199D03*
X69849999Y1600199D03*
X67309999Y1600199D03*
X64769999Y1600199D03*
X62229999Y1600199D03*
X59689999Y1600199D03*
X57149999Y1600199D03*
X54609999Y1600199D03*
X52069999Y1600199D03*
X49529999Y1600199D03*
X46989999Y1600199D03*
X44449999Y1600199D03*
X41909999Y1600199D03*
X39369999Y1600199D03*
X36829999Y1600199D03*
X34289999Y1600199D03*
X31749999Y1600199D03*
X29209999Y1600199D03*
X26669999Y1600199D03*
X24129999Y1600199D03*
X21589999Y1600199D03*
X19049999Y1600199D03*
X16509999Y1600199D03*
X13969999Y1600199D03*
X11429999Y1600199D03*
X8889999Y1600199D03*
X6349999Y1600199D03*
X3809999Y1600199D03*
D20*
X1270000Y1600200D03*
%TD*%
D30*
%TO.C,*%
X5080000Y33350200D03*
%TD*%
M02*
